<svg id="Layer_1" data-name="Layer 1" xmlns="http://www.w3.org/2000/svg" viewBox="0 0 45.52 45.52"><defs><style>.cls-1{fill:#a17de9}</style></defs><path class="cls-1" d="M43.82 21.82a1 1 0 00-1 .94V33a1.48 1.48 0 01-1.48 1.48H31.12a.44.44 0 01-.45-.42c-.34-4.29-2.2-5.19-3.7-5.19a5.06 5.06 0 01-4.84-2.41 1 1 0 00-1.32-.23 1 1 0 00-.23 1.31A6.87 6.87 0 0027 30.76c.68 0 1.55.56 1.8 3.23a.44.44 0 01-.12.35.43.43 0 01-.34.15H6a.43.43 0 01-.34-.15.44.44 0 01-.14-.34c.24-2.71 1.12-3.23 1.8-3.23a6.86 6.86 0 006.38-3.21.87.87 0 00.16-.7.9.9 0 00-.39-.61 1 1 0 00-.54-.17 1 1 0 00-.77.4 5.06 5.06 0 01-4.84 2.41c-1.41 0-3.19.8-3.65 4.62a.45.45 0 01-.38.4h-.07a.48.48 0 01-.46-.29 1.43 1.43 0 01-.15-.62V4.13a1.48 1.48 0 011.48-1.48h13a.95.95 0 000-1.89h-13A3.37 3.37 0 00.76 4.13V33a3.38 3.38 0 003.37 3.37h11.63a.45.45 0 01.46.44c0 4-1.38 5.51-2 6a.5.5 0 01-.29.09h-3.8a1 1 0 00-1 .85.94.94 0 00.85 1h25.41a1 1 0 001-.85.94.94 0 00-.85-1h-4a.47.47 0 01-.28-.09c-.59-.47-2-2-2-6a.45.45 0 01.44-.46h11.69A3.38 3.38 0 0044.76 33V22.76a.94.94 0 00-.94-.94zM28.49 42.66a.47.47 0 01-.39.21H17.42a.47.47 0 01-.39-.21.51.51 0 010-.45 12 12 0 001.06-5.45.45.45 0 01.44-.46H27a.45.45 0 01.46.44 11.87 11.87 0 001.08 5.41.48.48 0 01-.05.51z"/><path class="cls-1" d="M27 8.26h11.2a.94.94 0 000-1.88H27a.94.94 0 100 1.88zm0 5.62h11.2a.95.95 0 000-1.89H27a.95.95 0 000 1.89z"/><path class="cls-1" d="M42.41.76H22.76a2.35 2.35 0 00-2.35 2.35v5.65a.95.95 0 001.89 0V3.11a.47.47 0 01.46-.46h19.65a.45.45 0 01.46.44v13.67a.9.9 0 01-.9.9h-6.58a1 1 0 00-.59.2l-4.73 3.79a.43.43 0 01-.29.1.34.34 0 01-.2 0 .47.47 0 01-.26-.42v-2.78a.94.94 0 00-.94-.94h-2.81a.94.94 0 100 1.88H27a.47.47 0 01.46.46v4.21A.94.94 0 0028 25a.86.86 0 00.41.1.94.94 0 00.59-.2l6.64-5.31a.48.48 0 01.29-.1H42a2.79 2.79 0 002.79-2.73V3.11A2.35 2.35 0 0042.41.76zM12 16.94c0 4.58 2.26 8.17 5.15 8.17s5.16-3.59 5.16-8.17c0-5.73-3.61-6.35-5.16-6.35S12 11.21 12 16.94zm8.42 0c0 3.35-1.52 6.28-3.27 6.28s-3.26-2.93-3.26-6.28c0-4.47 2.46-4.47 3.26-4.47s3.26 0 3.26 4.47z"/></svg>