<svg id="Layer_1" data-name="Layer 1" xmlns="http://www.w3.org/2000/svg" viewBox="0 0 45.52 45.52"><defs><style>.cls-1{fill:#a17de9}</style></defs><path class="cls-1" d="M17.14 6.42a1 1 0 10-.94-1 1 1 0 00.94 1z"/><path class="cls-1" d="M24.16 42.87h-21a.45.45 0 01-.46-.44V8.76a.47.47 0 01.46-.46H6a.47.47 0 01.42.46v1.37a.94.94 0 00.94.94H27a.94.94 0 00.94-.94V8.76a.47.47 0 01.47-.46h2.8a.47.47 0 01.46.46V20a1 1 0 00.85 1 .94.94 0 001-.85.61.61 0 000-.19V8.76a2.36 2.36 0 00-2.35-2.34h-2.8a.47.47 0 01-.46-.42V4.51a.94.94 0 00-.91-.94h-5a.47.47 0 01-.4-.23 5.12 5.12 0 00-8.89 0 .47.47 0 01-.4.23h-5a.94.94 0 00-.94.94v1.4a.47.47 0 01-.47.47H3.11A2.35 2.35 0 00.76 8.73v33.68a2.35 2.35 0 002.35 2.35h21a1 1 0 001-.85.94.94 0 00-.85-1h-.14zm-15.9-37a.46.46 0 01.48-.46h4.49a1 1 0 00.89-.62 3.24 3.24 0 016.13 0 1 1 0 00.89.62h4.47a.48.48 0 01.46.46v2.89a.47.47 0 01-.46.46H8.76a.47.47 0 01-.5-.42V5.91z"/><path class="cls-1" d="M27.91 18.55a.94.94 0 00-.94-.94h-8.42a.94.94 0 100 1.88H27a.94.94 0 00.91-.94zM22.3 27a.94.94 0 00-.94-.94h-2.81a.94.94 0 000 1.88h2.81a.94.94 0 00.94-.94zm-3.75 7.45a.95.95 0 000 1.89H20a1 1 0 001-.85.94.94 0 00-.85-1 .61.61 0 00-.19 0zM14.9 15a.88.88 0 00-.56-.19 1 1 0 00-.76.38l-3.24 4.31a.48.48 0 01-.33.18.48.48 0 01-.32-.13L8 17.88a1 1 0 00-1.34 0 1 1 0 000 1.34L9.43 22l.09.07.07.06h.17a.75.75 0 00.33.07.81.81 0 00.37-.09l.1-.06.09-.06h.06l.07-.09a.3.3 0 01.08-.08L15 16.25a.92.92 0 00.18-.7.88.88 0 00-.28-.55zm0 8.41a.94.94 0 00-1.32.19l-3.24 4.32a.44.44 0 01-.33.18.48.48 0 01-.32-.1L8 26.3a1 1 0 00-1.34 0 1 1 0 000 1.34l2.78 2.77.09.07a.23.23 0 01.07.07h.16a1 1 0 00.33.06 1 1 0 00.37-.08l.1-.07.09-.05h.06l.07-.09a.27.27 0 01.08-.07l4.24-5.49a.94.94 0 00-.19-1.32zm-.56 8.23a1 1 0 00-.76.38l-3.24 4.32a.4.4 0 01-.33.18.43.43 0 01-.32-.14L8 34.76a.94.94 0 00-1.33 0 .94.94 0 000 1.33l2.78 2.78.09.06.07.07h.17a1 1 0 00.33.06 1 1 0 00.37-.08l.1-.06.09-.06h.06l.07-.09a.27.27 0 01.08-.07L15 33.18a.94.94 0 00-.19-1.32 1 1 0 00-.47-.22zM34 23.22A10.77 10.77 0 1044.76 34 10.78 10.78 0 0034 23.22zm0 19.65A8.88 8.88 0 1142.87 34 8.89 8.89 0 0134 42.87z"/><path class="cls-1" d="M37.5 30.24a1 1 0 00-.76.38l-3.24 4.32a.48.48 0 01-.33.18.51.51 0 01-.33-.13l-1.66-1.67a.95.95 0 10-1.34 1.34l2.78 2.77.09.07.07.07h.16a1 1 0 00.33.06 1 1 0 00.37-.08l.09-.06.09-.06h.06l.07-.09s0-.06.08-.07l4.22-5.51a.92.92 0 00.18-.7.86.86 0 00-.37-.62.89.89 0 00-.56-.2z"/></svg>