<svg version="1.1" id="Group_1_copy_9_1_" xmlns="http://www.w3.org/2000/svg" x="0" y="0" viewBox="0 0 190.08 85.92" xml:space="preserve"><style>.st0{fill:#fff}</style><path class="st0" d="M38.24 19.11a.47.47 0 00-.33-.14H24.2a.47.47 0 00-.33.14l-5.36 5.36a.47.47 0 00-.14.33v16.52c0 .12.05.24.14.33l5.36 5.36c.09.09.21.14.33.14h13.71c.12 0 .24-.05.33-.14l5.36-5.36a.47.47 0 00.14-.33v-4.97a.47.47 0 00-.47-.47h-4.7a.47.47 0 00-.47.47v4.7c0 .26-.21.47-.47.47H24.48a.47.47 0 01-.47-.47V25.08c0-.26.21-.47.47-.47h13.16c.26 0 .47.21.47.47v4.7c0 .26.21.47.47.47h4.7c.26 0 .47-.21.47-.47v-4.97a.47.47 0 00-.14-.33l-5.37-5.37zm93.97 0a.47.47 0 00-.33-.14h-13.71a.47.47 0 00-.33.14l-5.36 5.36a.47.47 0 00-.14.33v16.52c0 .12.05.24.14.33l5.36 5.36c.09.09.21.14.33.14h13.71c.12 0 .24-.05.33-.14l5.36-5.36a.47.47 0 00.14-.33v-4.97a.47.47 0 00-.47-.47h-4.7a.47.47 0 00-.47.47v4.7c0 .26-.21.47-.47.47h-13.16a.47.47 0 01-.47-.47V25.08c0-.26.21-.47.47-.47h13.16c.26 0 .47.21.47.47v4.7c0 .26.21.47.47.47h4.7c.26 0 .47-.21.47-.47v-4.97a.47.47 0 00-.14-.33l-5.36-5.37zm-46.65-.13h-4.7a.47.47 0 00-.47.47v21.61c0 .26-.21.47-.47.47H66.76a.47.47 0 01-.47-.47V19.44a.47.47 0 00-.47-.47h-4.7a.47.47 0 00-.47.47v21.88c0 .12.05.24.14.33l5.36 5.36c.09.09.21.14.33.14h13.71c.12 0 .24-.05.33-.14l5.36-5.36a.47.47 0 00.14-.33V19.44c.01-.25-.2-.46-.46-.46zM54.55 7.7h-4.7a.47.47 0 00-.47.47v38.52c0 .26.21.47.47.47h4.7c.26 0 .47-.21.47-.47V8.17a.47.47 0 00-.47-.47zm114.03 16.77l-5.36-5.36a.47.47 0 00-.33-.14h-13.43a.47.47 0 01-.47-.47V8.17a.47.47 0 00-.47-.47h-4.7a.47.47 0 00-.47.47v38.52c0 .26.21.47.47.47h4.7c.26 0 .47-.21.47-.47V25.08c0-.26.21-.47.47-.47h13.16c.26 0 .47.21.47.47v21.61c0 .26.21.47.47.47h4.7c.26 0 .47-.21.47-.47V24.81a.532.532 0 00-.15-.34zm-60.47-5.49H97.77a.47.47 0 01-.47-.47V8.17a.47.47 0 00-.47-.47h-4.7a.47.47 0 00-.47.47v33.16c0 .12.05.24.14.33l5.36 5.36c.09.09.21.14.33.14h10.61c.26 0 .47-.21.47-.47v-4.7a.47.47 0 00-.47-.47H97.77a.47.47 0 01-.47-.47V25.08c0-.26.21-.47.47-.47h10.34c.26 0 .47-.21.47-.47v-4.7c0-.25-.21-.46-.47-.46z" id="Shape_1"/><path class="st0" d="M28.98 68.82h-6.03v-6.59H19.1v16.83h3.85v-6.83h6.03v6.83h3.82V62.23h-3.82v6.59zm22.76 3.34h6.51v-3.27h-6.51v-3.22h7.69v-3.44H48.04v16.83h11.63V75.6h-7.93v-3.44zm25.94-9.93l-5.65 16.83h4.04l1.03-3.37h6.13l1.03 3.37h4.06l-5.65-16.83h-4.99zm.46 10.19l1.88-6.08h.31l1.88 6.08h-4.07zm28.84-10.19h-4.06v16.83h12v-3.68h-7.93V62.23zm20.29 3.51h4.52v13.32h3.8V65.74h4.54v-3.51h-12.86v3.51zm36.78-3.51v6.59h-6.03v-6.59h-3.85v16.83h3.85v-6.83h6.03v6.83h3.82V62.23h-3.82z" id="HEALTH"/><path class="st0" d="M19.62 53.54l-1.14 1.8h148.6l1.14-1.8z" id="Rectangle_3"/></svg>