<svg version="1.1" id="Group_1_copy_9_1_" xmlns="http://www.w3.org/2000/svg" x="0" y="0" viewBox="0 0 190.08 85.92" xml:space="preserve"><style>.st0{fill:#fff}</style><path class="st0" d="M38.24 19.11a.47.47 0 00-.33-.14H24.2a.47.47 0 00-.33.14l-5.36 5.36a.47.47 0 00-.14.33v16.52c0 .12.05.24.14.33l5.36 5.36c.09.09.21.14.33.14h13.71c.12 0 .24-.05.33-.14l5.36-5.36a.47.47 0 00.14-.33v-4.97a.47.47 0 00-.47-.47h-4.7a.47.47 0 00-.47.47v4.7c0 .26-.21.47-.47.47H24.48a.47.47 0 01-.47-.47V25.08c0-.26.21-.47.47-.47h13.16c.26 0 .47.21.47.47v4.7c0 .26.21.47.47.47h4.7c.26 0 .47-.21.47-.47v-4.97a.47.47 0 00-.14-.33l-5.37-5.37zm93.97 0a.47.47 0 00-.33-.14h-13.71a.47.47 0 00-.33.14l-5.36 5.36a.47.47 0 00-.14.33v16.52c0 .12.05.24.14.33l5.36 5.36c.09.09.21.14.33.14h13.71c.12 0 .24-.05.33-.14l5.36-5.36a.47.47 0 00.14-.33v-4.97a.47.47 0 00-.47-.47h-4.7a.47.47 0 00-.47.47v4.7c0 .26-.21.47-.47.47h-13.16a.47.47 0 01-.47-.47V25.08c0-.26.21-.47.47-.47h13.16c.26 0 .47.21.47.47v4.7c0 .26.21.47.47.47h4.7c.26 0 .47-.21.47-.47v-4.97a.47.47 0 00-.14-.33l-5.36-5.37zm-46.65-.13h-4.7a.47.47 0 00-.47.47v21.61c0 .26-.21.47-.47.47H66.76a.47.47 0 01-.47-.47V19.44a.47.47 0 00-.47-.47h-4.7a.47.47 0 00-.47.47v21.88c0 .12.05.24.14.33l5.36 5.36c.09.09.21.14.33.14h13.71c.12 0 .24-.05.33-.14l5.36-5.36a.47.47 0 00.14-.33V19.44c.01-.25-.2-.46-.46-.46zM54.55 7.7h-4.7a.47.47 0 00-.47.47v38.52c0 .26.21.47.47.47h4.7c.26 0 .47-.21.47-.47V8.17a.47.47 0 00-.47-.47zm114.03 16.77l-5.36-5.36a.47.47 0 00-.33-.14h-13.43a.47.47 0 01-.47-.47V8.17a.47.47 0 00-.47-.47h-4.7a.47.47 0 00-.47.47v38.52c0 .26.21.47.47.47h4.7c.26 0 .47-.21.47-.47V25.08c0-.26.21-.47.47-.47h13.16c.26 0 .47.21.47.47v21.61c0 .26.21.47.47.47h4.7c.26 0 .47-.21.47-.47V24.81a.532.532 0 00-.15-.34zm-60.47-5.49H97.77a.47.47 0 01-.47-.47V8.17a.47.47 0 00-.47-.47h-4.7a.47.47 0 00-.47.47v33.16c0 .12.05.24.14.33l5.36 5.36c.09.09.21.14.33.14h10.61c.26 0 .47-.21.47-.47v-4.7a.47.47 0 00-.47-.47H97.77a.47.47 0 01-.47-.47V25.08c0-.26.21-.47.47-.47h10.34c.26 0 .47-.21.47-.47v-4.7c0-.25-.21-.46-.47-.46z" id="Shape_1"/><path class="st0" d="M19.62 53.54l-1.14 1.8h148.6l1.14-1.8z" id="Rectangle_3"/><path class="st0" d="M22.3 61.99h-3.9v11.24h3.9c1.71 0 3.09-.49 4.14-1.47 1.04-.98 1.57-2.37 1.57-4.18 0-1.79-.52-3.17-1.55-4.14-1.04-.96-2.43-1.45-4.16-1.45zm2.22 7.95c-.58.59-1.31.88-2.19.88H21v-6.44h1.33c.89 0 1.62.28 2.2.83.58.55.87 1.32.87 2.3 0 1.04-.29 1.85-.88 2.43zm9.6 3.3h2.67V61.99h-2.67v11.25zm12.05-11.25L42.4 73.23h2.7l.69-2.25h4.1l.69 2.25h2.71l-3.77-11.24h-3.35zm.3 6.81l1.25-4.06h.21l1.25 4.06h-2.71zm16.85.2h2.67v1.22c-.64.58-1.39.87-2.25.87-1.01 0-1.76-.3-2.26-.91-.5-.6-.75-1.42-.75-2.43 0-1.03.25-1.87.75-2.54.5-.66 1.21-1 2.12-1 .55 0 1.02.14 1.41.41.4.27.63.61.71 1h2.63c-.1-1.1-.56-2.01-1.41-2.72-.84-.71-2.02-1.07-3.53-1.07-1.57 0-2.85.56-3.84 1.68-.99 1.12-1.48 2.56-1.48 4.31 0 1.65.45 2.99 1.35 4.02.9 1.03 2.12 1.55 3.66 1.55.76 0 1.4-.13 1.93-.39.52-.26.92-.54 1.17-.85h.19l.34 1.08h1.75V67h-5.17v2zm18.71-.52h-.19l-4.21-6.49H75.1v11.24h2.46v-6.52h.19l4.37 6.52h2.36V61.99h-2.44v6.49zm14.3-6.65c-1.66 0-3.04.55-4.13 1.65-1.09 1.1-1.64 2.48-1.64 4.13 0 1.66.54 3.04 1.63 4.14 1.09 1.1 2.47 1.65 4.14 1.65 1.64 0 3-.55 4.1-1.65 1.09-1.1 1.64-2.48 1.64-4.13s-.55-3.02-1.64-4.13c-1.1-1.1-2.46-1.66-4.1-1.66zm2.19 8.16c-.58.63-1.31.95-2.19.95-.9 0-1.64-.32-2.22-.95-.58-.63-.88-1.42-.88-2.38 0-.95.29-1.75.88-2.38.58-.63 1.33-.95 2.22-.95.87 0 1.6.32 2.18.95.59.63.88 1.42.88 2.38.01.96-.29 1.75-.87 2.38zm13.89-3.51c-.69-.28-1.16-.53-1.43-.75-.27-.22-.4-.48-.4-.78 0-.3.11-.54.33-.71.22-.17.51-.26.86-.26.46 0 .82.12 1.08.37.26.25.41.57.44.96h2.33c0-.99-.35-1.81-1.04-2.48-.7-.67-1.64-1-2.83-1-1.08 0-1.97.29-2.67.88-.7.59-1.05 1.4-1.05 2.43 0 .86.28 1.54.85 2.06.57.51 1.36.96 2.38 1.33.76.28 1.29.53 1.6.75s.46.52.46.88c0 .34-.13.61-.38.79-.25.18-.57.27-.96.27-.59 0-1.04-.16-1.34-.47-.31-.32-.46-.75-.46-1.31h-2.49c0 1.18.37 2.13 1.12 2.86.75.73 1.78 1.09 3.08 1.09 1.21 0 2.18-.28 2.92-.83.73-.55 1.1-1.35 1.1-2.39 0-.94-.29-1.68-.86-2.2-.57-.51-1.45-1.01-2.64-1.49zm8.8-2.14h3.02v8.9h2.54v-8.9h3.04v-2.35h-8.59v2.35zm14.58 8.9h2.67V61.99h-2.67v11.25zm15.7-2.64c-.39.27-.86.4-1.41.4-.86 0-1.53-.3-2.03-.9-.5-.6-.75-1.41-.75-2.44 0-1.01.24-1.83.71-2.47.47-.64 1.11-.96 1.93-.96 1.13 0 1.85.49 2.14 1.46h2.7c-.13-.89-.44-1.63-.93-2.22-.49-.59-1.07-1.02-1.73-1.27-.66-.25-1.4-.38-2.2-.38-1.61 0-2.9.54-3.88 1.61-.98 1.08-1.47 2.47-1.47 4.17 0 1.72.49 3.12 1.48 4.18.99 1.07 2.34 1.6 4.06 1.6 1.26 0 2.34-.34 3.24-1.01.89-.67 1.45-1.63 1.66-2.86h-2.68c-.19.47-.46.83-.84 1.09zm16.4-2.61c-.57-.52-1.45-1.03-2.64-1.51-.69-.28-1.16-.53-1.43-.75-.27-.22-.4-.48-.4-.78 0-.3.11-.54.33-.71.22-.17.51-.26.86-.26.46 0 .82.12 1.08.37.26.25.41.57.44.96h2.33c0-.99-.35-1.81-1.04-2.48-.7-.67-1.64-1-2.83-1-1.08 0-1.97.29-2.67.88-.7.59-1.05 1.4-1.05 2.43 0 .86.28 1.54.85 2.06.57.51 1.36.96 2.38 1.33.76.28 1.29.53 1.6.75s.46.52.46.88c0 .34-.13.61-.38.79-.25.18-.57.27-.96.27-.59 0-1.04-.16-1.34-.47-.31-.32-.46-.75-.46-1.31h-2.49c0 1.18.37 2.13 1.12 2.86.75.73 1.78 1.09 3.08 1.09 1.21 0 2.18-.28 2.92-.83.73-.55 1.1-1.35 1.1-2.39 0-.93-.28-1.66-.86-2.18z" id="DIAGNOSTICS"/></svg>