<svg version="1.1" id="Layer_1" xmlns="http://www.w3.org/2000/svg" x="0" y="0" viewBox="0 0 85 85" xml:space="preserve"><style>.st0{fill:#a17de9}</style><path class="st0" d="M42.88 22.45c-1.55 0-2.8-1.25-2.8-2.8v-7.39c0-1.55 1.25-2.8 2.8-2.8s2.8 1.25 2.8 2.8v7.39c0 1.55-1.26 2.8-2.8 2.8z"/><path class="st0" d="M42.88 15.06c-3.09 0-5.6-2.51-5.6-5.6s2.51-5.6 5.6-5.6 5.6 2.51 5.6 5.6c-.01 3.1-2.51 5.6-5.6 5.6zm0-8.39v2.8h.01l-.01-2.8zm0 68.16c-1.55 0-2.8-1.25-2.8-2.8v-7.39c0-1.55 1.25-2.8 2.8-2.8s2.8 1.25 2.8 2.8v7.39c0 1.55-1.26 2.8-2.8 2.8z"/><path class="st0" d="M42.88 80.43c-3.09 0-5.6-2.51-5.6-5.6s2.51-5.6 5.6-5.6 5.6 2.51 5.6 5.6c-.01 3.09-2.51 5.6-5.6 5.6zm0-5.6l-.01 2.8.01-2.8zM20.39 44.95h-7.4c-1.55 0-2.8-1.25-2.8-2.8 0-1.55 1.25-2.8 2.8-2.8h7.4c1.55 0 2.8 1.25 2.8 2.8 0 1.55-1.25 2.8-2.8 2.8z"/><path class="st0" d="M10.19 47.75c-3.09 0-5.6-2.51-5.6-5.6s2.51-5.6 5.6-5.6 5.6 2.51 5.6 5.6-2.51 5.6-5.6 5.6zm0-5.61l-2.8.01 2.8.01v-.02zm62.57 2.81h-7.39c-1.55 0-2.8-1.25-2.8-2.8 0-1.55 1.25-2.8 2.8-2.8h7.39c1.55 0 2.8 1.25 2.8 2.8 0 1.55-1.25 2.8-2.8 2.8z"/><path class="st0" d="M75.56 47.75c-3.09 0-5.6-2.51-5.6-5.6s2.51-5.6 5.6-5.6 5.6 2.51 5.6 5.6-2.51 5.6-5.6 5.6zm0-5.61l2.8.01-2.8-.01zM21.75 66.08c-.72 0-1.43-.27-1.98-.82a2.807 2.807 0 010-3.96L25 56.08c1.09-1.09 2.86-1.09 3.96 0s1.09 2.86 0 3.96l-5.23 5.23c-.55.54-1.26.81-1.98.81z"/><path class="st0" d="M19.77 70.86c-1.43 0-2.86-.55-3.96-1.64l-.01-.01a5.607 5.607 0 010-7.9c2.19-2.18 5.74-2.19 7.93-.01 2.18 2.18 2.18 5.73 0 7.92a5.597 5.597 0 01-3.96 1.64zm39.01-41.82c-.72 0-1.43-.27-1.98-.82a2.807 2.807 0 010-3.96l5.23-5.23a2.807 2.807 0 013.96 0 2.807 2.807 0 010 3.96l-5.23 5.23c-.54.55-1.26.82-1.98.82z"/><path class="st0" d="M65.99 24.63c-1.43 0-2.86-.54-3.96-1.63-2.18-2.18-2.18-5.73 0-7.92a5.583 5.583 0 017.91 0c2.18 2.18 2.18 5.73 0 7.92a5.563 5.563 0 01-3.95 1.63zm1.98-7.57l-1.98 1.98H66l1.97-1.98zm-3.96 49.02c-.72 0-1.43-.27-1.98-.82l-5.23-5.23c-1.09-1.09-1.09-2.86 0-3.96s2.86-1.09 3.96 0l5.23 5.23a2.807 2.807 0 010 3.96c-.55.55-1.27.82-1.98.82z"/><path class="st0" d="M65.99 70.85c-1.43 0-2.86-.54-3.96-1.63-2.18-2.18-2.18-5.73 0-7.92a5.583 5.583 0 017.91 0c2.18 2.18 2.18 5.73 0 7.92a5.563 5.563 0 01-3.95 1.63zm0-5.6c0 .01 0 .01 0 0l1.98 1.98-1.98-1.98zM26.98 29.04c-.72 0-1.43-.27-1.98-.82L19.77 23a2.807 2.807 0 010-3.96 2.807 2.807 0 013.96 0l5.23 5.23a2.807 2.807 0 010 3.96c-.55.54-1.27.81-1.98.81z"/><path class="st0" d="M19.77 24.64c-1.43 0-2.86-.55-3.96-1.64-2.18-2.19-2.18-5.73-.01-7.91l.01-.01c2.19-2.19 5.74-2.19 7.92 0 2.18 2.18 2.18 5.73 0 7.92a5.597 5.597 0 01-3.96 1.64zm0-5.6h.05-.05zm23.57 40.68c-.33 0-.66-.06-.98-.18l-15.9-5.96a2.783 2.783 0 01-1.81-2.62V33.09c0-.92.45-1.78 1.2-2.3.76-.52 1.72-.64 2.58-.32l15.9 5.96c1.09.4 1.81 1.45 1.81 2.62v17.88c0 .92-.45 1.78-1.2 2.3-.48.32-1.04.49-1.6.49zm-13.1-10.69l10.3 3.86v-11.9l-10.3-3.86v11.9z"/><path class="st0" d="M43.34 59.72c-.55 0-1.09-.16-1.56-.48a2.808 2.808 0 01-1.24-2.32V39.04c0-1.17.73-2.22 1.83-2.62l14.98-5.54c.86-.33 1.82-.2 2.57.33.75.52 1.2 1.38 1.2 2.3v17.32c0 1.14-.69 2.16-1.74 2.59L44.4 59.53c-.35.13-.71.19-1.06.19zM46.13 41v11.76l9.39-3.82V37.52L46.13 41zm12.19 9.82h.05-.05z"/><path class="st0" d="M43.34 41.84c-.33 0-.67-.06-.98-.18l-15.9-5.96a2.797 2.797 0 01.02-5.24l14.98-5.55c.64-.23 1.32-.23 1.96.01l15.9 5.96a2.797 2.797 0 01-.02 5.24l-14.98 5.54c-.33.12-.66.18-.98.18zm-7.88-8.74l7.88 2.96 6.96-2.57-7.88-2.96-6.96 2.57z"/></svg>