<svg version="1.1" id="Layer_1" xmlns="http://www.w3.org/2000/svg" x="0" y="0" viewBox="0 0 85 85" xml:space="preserve"><style>.st0{fill:#5e3aa6}</style><path class="st0" d="M30.34 70.37h5.53v10.37h-5.53zm16.6-16.59h5.53v26.96h-5.53zm16.59-16.6h5.53v43.55h-5.53zM19.28 80.74h-5.53V59.31l5.53-5.53zm49.78-60.15l-5.53 5.53V9.53L69.06 4zm-16.59 0h11.06v5.53H52.47zm0 16.59l-5.53 5.53V26.12l5.53-5.53z"/><linearGradient id="SVGID_1_" gradientUnits="userSpaceOnUse" x1="-1600.299" y1="-2208.816" x2="-1600.299" y2="-2219.877" gradientTransform="translate(1650 2246)"><stop offset="0" stop-color="#2f1d57" stop-opacity="0"/><stop offset="1" stop-color="#2f1d57" stop-opacity=".5"/></linearGradient><path fill="url(#SVGID_1_)" d="M46.94 26.12h5.53v11.06h-5.53z"/><linearGradient id="SVGID_2_" gradientUnits="userSpaceOnUse" x1="347.357" y1="2233.533" x2="347.357" y2="2222.472" gradientTransform="rotate(90 1305 981)"><stop offset="0" stop-color="#2f1d57" stop-opacity="0"/><stop offset="1" stop-color="#2f1d57" stop-opacity=".5"/></linearGradient><path fill="url(#SVGID_2_)" d="M52.47 20.59h11.06v5.53H52.47z"/><path class="st0" d="M35.87 37.18h11.06v5.53H35.87zm0 16.6l-5.53 5.53v-16.6l5.53-5.53z"/><linearGradient id="SVGID_3_" gradientUnits="userSpaceOnUse" x1="-1616.89" y1="-2192.224" x2="-1616.89" y2="-2203.285" gradientTransform="translate(1650 2246)"><stop offset="0" stop-color="#2f1d57" stop-opacity="0"/><stop offset="1" stop-color="#2f1d57" stop-opacity=".5"/></linearGradient><path fill="url(#SVGID_3_)" d="M30.34 42.71h5.53v11.06h-5.53z"/><linearGradient id="SVGID_4_" gradientUnits="userSpaceOnUse" x1="-1633.482" y1="-2175.632" x2="-1633.482" y2="-2186.694" gradientTransform="translate(1650 2246)"><stop offset="0" stop-color="#2f1d57" stop-opacity="0"/><stop offset="1" stop-color="#2f1d57" stop-opacity=".5"/></linearGradient><path fill="url(#SVGID_4_)" d="M13.75 59.31h5.53v11.06h-5.53z"/><linearGradient id="SVGID_5_" gradientUnits="userSpaceOnUse" x1="363.949" y1="2250.125" x2="363.949" y2="2239.064" gradientTransform="rotate(90 1305 981)"><stop offset="0" stop-color="#2f1d57" stop-opacity="0"/><stop offset="1" stop-color="#2f1d57" stop-opacity=".5"/></linearGradient><path fill="url(#SVGID_5_)" d="M35.87 37.18h11.06v5.53H35.87z"/><path class="st0" d="M19.28 53.78h11.06v5.53H19.28z"/><linearGradient id="SVGID_6_" gradientUnits="userSpaceOnUse" x1="380.541" y1="2266.717" x2="380.541" y2="2255.656" gradientTransform="rotate(90 1305 981)"><stop offset="0" stop-color="#2f1d57" stop-opacity="0"/><stop offset="1" stop-color="#2f1d57" stop-opacity=".5"/></linearGradient><path fill="url(#SVGID_6_)" d="M19.28 53.78h11.06v5.53H19.28z"/></svg>