<svg version="1.1" id="Layer_1" xmlns="http://www.w3.org/2000/svg" x="0" y="0" viewBox="0 0 85 85" xml:space="preserve"><style>.st0{fill:#5e3aa6}</style><path class="st0" d="M15.31 27.16v29.93L27.79 69.7V27.04H15.43z"/><linearGradient id="SVGID_1_" gradientUnits="userSpaceOnUse" x1="21.55" y1="62.667" x2="21.55" y2="-.222"><stop offset="0" stop-color="#2f1d57" stop-opacity="0"/><stop offset="1" stop-color="#2f1d57" stop-opacity=".5"/></linearGradient><path fill="url(#SVGID_1_)" d="M15.31 27.16v29.93L27.79 69.7V27.04H15.43z"/><path class="st0" d="M70.44 69.7L57.72 57.09H27.79V69.7z"/><linearGradient id="SVGID_2_" gradientUnits="userSpaceOnUse" x1="83.685" y1="65.091" x2="-33.614" y2="57.578"><stop offset="0" stop-color="#2f1d57" stop-opacity="0"/><stop offset="1" stop-color="#2f1d57" stop-opacity=".5"/></linearGradient><path fill="url(#SVGID_2_)" d="M70.44 68.77l-12.72-12.6H27.79v12.6z"/><path class="st0" d="M27.79 14.56L15.43 27.04h42.53V14.56z"/><linearGradient id="SVGID_3_" gradientUnits="userSpaceOnUse" x1="15.43" y1="20.802" x2="57.963" y2="20.802"><stop offset="0" stop-color="#2f1d57" stop-opacity="0"/><stop offset="1" stop-color="#2f1d57" stop-opacity=".5"/></linearGradient><path fill="url(#SVGID_3_)" d="M27.79 14.56L15.43 27.04h42.53V14.56z"/><path class="st0" d="M70.44 2H57.96v25.04l12.48-12.6zm-12.6 67.7h12.6v12.6h-12.6z"/></svg>