<svg version="1.1" id="Layer_1" xmlns="http://www.w3.org/2000/svg" x="0" y="0" viewBox="0 0 85 85" xml:space="preserve"><style>.st0{fill:#5e3aa6}</style><path transform="rotate(-180 55.132 66.693)" class="st0" d="M51.09 58.61h8.09v16.17h-8.09z"/><path class="st0" d="M83.43 50.52h-8.08V26.26l8.08 8.09z"/><path class="st0" d="M51.09 58.61v-8.09h32.34l-8.08 8.09zM34.92 82.87v-8.09h24.26l-8.09 8.09zm-8.09-72.78L34.92 2h16.17v8.09zm32.35 16.17h16.17v8.09H59.18zM10.66 50.52h16.17v8.09H10.66zM2.57 34.35l8.09-8.09h16.17v8.09zm32.35 48.52l-8.09-8.09V50.52h8.09z"/><path class="st0" d="M26.83 10.09h8.09v24.26h-8.09z"/><linearGradient id="SVGID_1_" gradientUnits="userSpaceOnUse" x1="101.175" y1="252.303" x2="117.348" y2="252.303" gradientTransform="translate(-42 -222)"><stop offset="0" stop-color="#2f1d57" stop-opacity="0"/><stop offset="1" stop-color="#2f1d57" stop-opacity=".5"/></linearGradient><path fill="url(#SVGID_1_)" d="M59.18 26.26h16.17v8.09H59.18z"/><linearGradient id="SVGID_2_" gradientUnits="userSpaceOnUse" x1="509.171" y1="197.437" x2="525.345" y2="197.437" gradientTransform="rotate(180 268 126)"><stop offset="0" stop-color="#2f1d57" stop-opacity="0"/><stop offset="1" stop-color="#2f1d57" stop-opacity=".5"/></linearGradient><path fill="url(#SVGID_2_)" d="M10.66 50.52h16.17v8.09H10.66z"/><linearGradient id="SVGID_3_" gradientUnits="userSpaceOnUse" x1="700.912" y1="533.177" x2="717.085" y2="533.177" gradientTransform="rotate(180 376 306)"><stop offset="0" stop-color="#2f1d57" stop-opacity="0"/><stop offset="1" stop-color="#2f1d57" stop-opacity=".5"/></linearGradient><path fill="url(#SVGID_3_)" d="M34.92 74.78h16.17v8.09H34.92z"/><linearGradient id="SVGID_4_" gradientUnits="userSpaceOnUse" x1="-151.085" y1="144.043" x2="-134.912" y2="144.043" gradientTransform="translate(186 -138)"><stop offset="0" stop-color="#2f1d57" stop-opacity="0"/><stop offset="1" stop-color="#2f1d57" stop-opacity=".5"/></linearGradient><path fill="url(#SVGID_4_)" d="M34.92 2h16.17v8.09H34.92z"/><linearGradient id="SVGID_5_" gradientUnits="userSpaceOnUse" x1="517.74" y1="-51.128" x2="533.913" y2="-51.128" gradientTransform="rotate(-90 313 231)"><stop offset="0" stop-color="#2f1d57" stop-opacity="0"/><stop offset="1" stop-color="#2f1d57" stop-opacity=".5"/></linearGradient><path fill="url(#SVGID_5_)" d="M34.92 10.09v16.17h-8.09V10.09z"/><linearGradient id="SVGID_6_" gradientUnits="userSpaceOnUse" x1="-7128.392" y1="6666.867" x2="-7112.218" y2="6666.867" gradientTransform="rotate(90 -232.5 6954.498)"><stop offset="0" stop-color="#2f1d57" stop-opacity="0"/><stop offset="1" stop-color="#2f1d57" stop-opacity=".5"/></linearGradient><path fill="url(#SVGID_6_)" d="M51.09 74.78V58.61h8.09v16.17z"/><path class="st0" d="M59.18 34.35h-8.09V2l8.09 8.09zM10.66 58.61l-8.09-8.09V34.35h8.09z"/><linearGradient id="SVGID_7_" gradientUnits="userSpaceOnUse" x1="493.48" y1="-75.388" x2="509.654" y2="-75.388" gradientTransform="rotate(-90 313 231)"><stop offset="0" stop-color="#2f1d57" stop-opacity="0"/><stop offset="1" stop-color="#2f1d57" stop-opacity=".5"/></linearGradient><path fill="url(#SVGID_7_)" d="M10.66 34.35v16.17H2.57V34.35z"/><linearGradient id="SVGID_8_" gradientUnits="userSpaceOnUse" x1="200.346" y1="512.609" x2="216.52" y2="512.609" gradientTransform="rotate(90 379 213)"><stop offset="0" stop-color="#2f1d57" stop-opacity="0"/><stop offset="1" stop-color="#2f1d57" stop-opacity=".5"/></linearGradient><path fill="url(#SVGID_8_)" d="M75.35 50.52V34.35h8.08v16.17z"/></svg>