<svg version="1.1" id="Layer_1" xmlns="http://www.w3.org/2000/svg" x="0" y="0" viewBox="0 0 30 30" xml:space="preserve"><path d="M1.09 3.01zM26.86 1H3.14c-1.13 0-2.05.9-2.05 2.01V27c0 1.1.92 2 2.05 2h23.71c1.14 0 2.06-.9 2.06-2.01V3.01c0-1.11-.92-2.01-2.05-2.01zM5.32 24.44V11.8h4.2v12.64h-4.2zm2.1-14.37h-.03c-1.41 0-2.32-.97-2.32-2.18 0-1.24.94-2.18 2.38-2.18s2.32.94 2.35 2.18c0 1.21-.91 2.18-2.38 2.18zm17.26 14.37h-4.2v-6.76c0-1.7-.61-2.86-2.13-2.86-1.16 0-1.85.78-2.16 1.54-.11.27-.14.65-.14 1.03v7.06h-4.2s.06-11.46 0-12.64h4.2v1.79c.56-.86 1.56-2.09 3.79-2.09 2.76 0 4.84 1.81 4.84 5.69v7.24z" fill="#2f1d57"/></svg>