<svg version="1.1" id="Layer_1" xmlns="http://www.w3.org/2000/svg" x="0" y="0" viewBox="0 0 45.52 45.52" xml:space="preserve"><style>.st1,.st2{fill:none;stroke:#a17de9;stroke-width:2;stroke-miterlimit:10;stroke-linejoin:round}.st2{stroke-linecap:round}</style><path d="M21.97 2.38v2.37m-9.26.64l1.68 1.68m16.84-1.68l-1.67 1.68" stroke-linecap="round" fill="none" stroke="#a17de9" stroke-width="2" stroke-miterlimit="10"/><path class="st1" d="M3.11 41.79h39.05M36.7 28.46H8.57v-2.19l2.35-2.98H34.4l2.3 3.01z"/><path class="st2" d="M20.66 35.3h.22"/><path class="st1" d="M18.41 28.46v13.33m8.45-13.33v13.33M5.03 24.47v17.32M40.2 24.47v17.32M15.98 15.76H6.15c-.2 0-.39.13-.46.32l-2.85 7.73c-.1.26.06.66.46.66h3.73m31.21 0h3.73c.34 0 .57-.36.46-.66l-2.85-7.73a.488.488 0 00-.46-.32H28.56M9.95 28.46v13.33m25.37-13.33v13.33"/><path class="st2" d="M18.16 16.85v-8.9h3.91c1.23 0 2.22 1 2.22 2.23 0 1.22-1 2.22-2.23 2.22h-.84l6.52 7.92m.01-7.92l-6.52 7.91"/></svg>