<svg id="Icons" xmlns="http://www.w3.org/2000/svg" viewBox="0 0 61.69 61.29"><defs><style>.cls-2,.cls-3{fill:none;stroke:#a17de9;stroke-width:2px}.cls-3{stroke-linecap:round}.cls-2,.cls-3{stroke-linejoin:round}</style></defs><path d="M29.82 1v3.57m-13.93.97l2.52 2.52m25.35-2.52l-2.52 2.52" stroke-miterlimit="10" stroke-linecap="round" fill="none" stroke="#a17de9" stroke-width="2"/><path class="cls-2" d="M1.44 60.29H60.2m-8.22-20.04H9.67v-3.3l3.53-4.48h35.33l3.45 4.52v3.26z"/><path class="cls-3" d="M27.85 50.53h.33"/><path class="cls-2" d="M24.46 40.25v20.04m12.72-20.04v20.04M4.34 34.24v26.05m52.9-26.05v26.05M20.81 21.14H6a.72.72 0 00-.69.48L1.05 33.25a.73.73 0 00.41 1 .81.81 0 00.27 0h5.61m46.97-.01H60a.74.74 0 00.73-.75.7.7 0 000-.25l-4.42-11.62a.71.71 0 00-.68-.48H39.74m-28 19.11v20.04M49.9 40.25v20.04"/><path class="cls-3" d="M24.08 22.78V9.38H30a3.35 3.35 0 010 6.69h-1.3L38.52 28m0-11.92L28.7 27.99"/></svg>