<svg version="1.1" id="Layer_1" xmlns="http://www.w3.org/2000/svg" x="0" y="0" viewBox="0 0 85 85" xml:space="preserve"><style>.st0{fill:#a17de9}</style><path class="st0" d="M22.33 81.54c-.91 0-1.65-.74-1.65-1.65s.74-1.65 1.65-1.65h4.23c.18 0 .36-.06.5-.17 1.04-.81 3.46-3.46 3.46-10.47 0-.45-.36-.81-.81-.81H9.37a5.91 5.91 0 01-5.9-5.9v-50.5c0-3.25 2.65-5.9 5.9-5.9h65.25c3.25 0 5.9 2.65 5.9 5.9v50.5c0 3.25-2.65 5.9-5.9 5.9H54.29c-.45 0-.81.36-.81.81 0 7.02 2.4 9.66 3.43 10.47.14.11.32.17.5.17h4.25c.91 0 1.65.74 1.65 1.65s-.74 1.65-1.65 1.65H22.33zm12.29-14.75c-.45 0-.81.36-.81.81 0 3.79-.63 6.98-1.88 9.47-.13.25-.11.55.04.79s.41.38.69.38h18.69a.809.809 0 00.73-1.17c-1.25-2.5-1.88-5.68-1.88-9.47 0-.45-.36-.81-.81-.81H34.62zM7.58 52.04c-.45 0-.81.36-.81.81v8.04c0 1.41 1.19 2.6 2.6 2.6h65.25c1.43 0 2.6-1.17 2.6-2.6v-8.04c0-.45-.36-.81-.81-.81H7.58zM9.37 7.79c-1.41 0-2.6 1.19-2.6 2.6v37.54c0 .45.36.81.81.81h68.83c.45 0 .81-.36.81-.81V10.39c0-1.43-1.17-2.6-2.6-2.6H9.37z"/><path class="st0" d="M51.83 42.21c-.68 0-1.31-.43-1.55-1.07l-4.35-11.6a.8.8 0 00-.76-.52h-.07c-.36.03-.66.29-.73.65l-.77 3.85c-.15.77-.84 1.33-1.62 1.33h-7.37c-.91 0-1.65-.74-1.65-1.65 0-.91.74-1.65 1.65-1.65h5.36c.38 0 .72-.27.79-.65l2.06-10.32c.14-.72.76-1.26 1.49-1.32h.11c.71 0 1.33.42 1.57 1.07l4.35 11.6a.8.8 0 00.76.52h.07c.36-.03.66-.29.73-.65l3.23-16.14c.15-.75.79-1.29 1.55-1.33h.13c.73 0 1.31.46 1.53 1.2l4.41 15.42c.1.35.42.59.78.59h5.52c.91 0 1.65.74 1.65 1.65 0 .91-.74 1.65-1.65 1.65h-7.37c-.73 0-1.39-.49-1.59-1.2l-2.13-7.46a.813.813 0 00-.78-.59h-.03a.81.81 0 00-.76.65l-2.93 14.64c-.14.72-.76 1.26-1.49 1.32-.04.01-.09.01-.14.01zM23.04 16.78h-8.08c-.91 0-1.65.74-1.65 1.65 0 .91.74 1.65 1.65 1.65h8.08c.91 0 1.65-.74 1.65-1.65 0-.91-.74-1.65-1.65-1.65zm0 9.83h-8.08c-.91 0-1.65.74-1.65 1.65s.74 1.65 1.65 1.65h8.08c.91 0 1.65-.74 1.65-1.65s-.74-1.65-1.65-1.65zm0 9.83h-8.08c-.91 0-1.65.74-1.65 1.65s.74 1.65 1.65 1.65h8.08c.91 0 1.65-.74 1.65-1.65s-.74-1.65-1.65-1.65z"/></svg>