<svg version="1.1" id="Layer_1" xmlns="http://www.w3.org/2000/svg" xmlns:xlink="http://www.w3.org/1999/xlink" x="0" y="0" viewBox="0 0 69.1 60.2" xml:space="preserve"><style>.st6{clip-path:url(#SVGID_2_);fill:none;stroke:#5e3ba6;stroke-width:.603;stroke-linecap:square;stroke-miterlimit:10}</style><defs><path id="SVGID_1_" d="M0 0h69.1v60.2H0z"/></defs><clipPath id="SVGID_2_"><use xlink:href="#SVGID_1_" overflow="visible"/></clipPath><path d="M39.9 59.8c16 0 28.9-12.9 28.9-28.9S55.8 2 39.9 2 11 15 11 30.9s12.9 28.9 28.9 28.9" clip-path="url(#SVGID_2_)" fill="#b7c0dc"/><path d="M39.9 59.8c16 0 28.9-12.9 28.9-28.9S55.8 2 39.9 2 11 15 11 30.9s12.9 28.9 28.9 28.9z" clip-path="url(#SVGID_2_)" fill="none" stroke="#5e3ba6" stroke-width=".803"/><g clip-path="url(#SVGID_2_)"><text transform="translate(0 10.926)" font-size="13.658" font-family="FuturaLT-Bold" fill="#2e2057">5.</text></g><path class="st6" d="M33.7 37.3c0-3.1 1.5-4.6 1.5-4.6s-1.5 1.5-1.5 4.6zm1.8 6.4h1.2v-3.6c0-1.5-1.2-2.8-2.8-2.8-1.5 0-2.8 1.2-2.8 2.8v3.6h1.2-1.2v-3.6c0-1.5 1.2-2.8 2.8-2.8 1.5 0 2.8 1.2 2.8 2.8v3.6h-1.2zM45 26.6c0 2.8-3.7 5.1-5.1 5.1-1.5 0-5.1-2.3-5.1-5.1v-4.3c0-2.8 2.3-5.1 5.1-5.1s5.1 2.3 5.1 5.1v4.3zm3.6 15.2c0 1.1-.9 1.9-1.9 1.9s-1.9-.9-1.9-1.9.9-1.9 1.9-1.9 1.9.8 1.9 1.9zm-3.2-9.1s1.5 2.3 1.3 7.2c.2-4.9-1.3-7.2-1.3-7.2z"/><path class="st6" d="M28.4 44.6v-5.8c0-3.4 2.8-6.2 6.2-6.2H37h-2.4c-3.4 0-6.2 2.8-6.2 6.2v5.8zm22.9 0v-5.8c0-3.4-2.8-6.2-6.2-6.2h-2.4 2.4c3.4 0 6.2 2.8 6.2 6.2v5.8zM45 22.3c-5.8 2.2-7.8-.9-7.8-.9s2 3.1 7.8.9zm-7.8 8.3v3.3l1.5 3.4c.4 1.1 1.9 1.1 2.3 0l1.5-3.5v-3.1 3.1L41 37.3c-.4 1.1-1.9 1.1-2.3 0l-1.5-3.4v-3.3z"/></svg>