<svg version="1.1" id="Layer_1" xmlns="http://www.w3.org/2000/svg" xmlns:xlink="http://www.w3.org/1999/xlink" x="0" y="0" viewBox="0 0 68.7 59.2" xml:space="preserve"><defs><path id="SVGID_1_" d="M0 0h68.7v59.2H0z"/></defs><clipPath id="SVGID_2_"><use xlink:href="#SVGID_1_" overflow="visible"/></clipPath><g clip-path="url(#SVGID_2_)"><text transform="translate(0 10.926)" font-size="13.658" font-family="FuturaLT-Bold" fill="#2e2057">3.</text></g><path d="M39.4 58.8c16 0 28.9-12.9 28.9-28.9S55.4 1 39.4 1 10.5 14 10.5 29.9s13 28.9 28.9 28.9" clip-path="url(#SVGID_2_)" fill="#b7c0dc"/><path d="M39.4 58.8c16 0 28.9-12.9 28.9-28.9S55.4 1 39.4 1 10.5 14 10.5 29.9s13 28.9 28.9 28.9z" clip-path="url(#SVGID_2_)" fill="none" stroke="#5e3ba6" stroke-width=".803"/><path d="M33.1 30.1h-2.5 2.5zm13.6-13.7v3.7h3.7-3.7v-3.7zM30.6 33.5v8.9h19.8V20.1l-3.7-3.7H30.6v10.3-10.3h16.1l3.7 3.7v22.2H30.6v-8.8z" fill="none" stroke="#5e3ba6" stroke-width=".603" stroke-miterlimit="10"/><path fill="none" stroke="#5e3ba6" stroke-width=".603" stroke-linecap="square" stroke-linejoin="round" stroke-miterlimit="10" d="M22 28.5h8.8v3.1H22z"/><defs><path id="SVGID_3_" d="M0 0h68.7v59.2H0z"/></defs><clipPath id="SVGID_4_"><use xlink:href="#SVGID_3_" overflow="visible"/></clipPath><path d="M45.5 35.4v-1.2c0-.8-.5-1.4-1.2-1.6l-.3-.1c-1.1-.3-2.2-.5-3.4-.5h-.1c-1.2 0-2.4.2-3.5.5l-.3.1c-.7.2-1.2.9-1.2 1.6v1.2-1.2c0-.8.5-1.4 1.2-1.6l.3-.1c1.1-.3 2.3-.5 3.5-.5h.1c1.1 0 2.3.2 3.4.5l.3.1c.7.2 1.2.9 1.2 1.6v1.2zm.3-10.6c2.9 2.9 2.9 7.6 0 10.5-2.9 2.9-7.6 2.9-10.5 0-2.9-2.9-2.9-7.6 0-10.5 2.8-2.9 7.6-2.9 10.5 0z" clip-path="url(#SVGID_4_)" fill="none" stroke="#5e3ba6" stroke-width=".603" stroke-linecap="square" stroke-miterlimit="10"/><path d="M43 29c0 1.4-1.1 2.5-2.5 2.5S38 30.4 38 29s1.1-2.5 2.5-2.5S43 27.7 43 29z" clip-path="url(#SVGID_4_)" fill="none" stroke="#5e3ba6" stroke-width=".603" stroke-miterlimit="10"/></svg>