<svg version="1.1" id="Layer_1" xmlns="http://www.w3.org/2000/svg" xmlns:xlink="http://www.w3.org/1999/xlink" x="0" y="0" viewBox="0 0 67.5 59.2" xml:space="preserve"><defs><path id="SVGID_1_" d="M0 0h67.5v59.2H0z"/></defs><clipPath id="SVGID_2_"><use xlink:href="#SVGID_1_" overflow="visible"/></clipPath><g clip-path="url(#SVGID_2_)"><text transform="translate(0 10.926)" font-size="13.658" font-family="FuturaLT-Bold" fill="#2e2057">2.</text></g><path d="M38.2 58.8c16 0 28.9-12.9 28.9-28.9S54.2 1 38.2 1 9.3 14 9.3 29.9s13 28.9 28.9 28.9" clip-path="url(#SVGID_2_)" fill="#b7c0dc"/><path d="M38.2 58.8c16 0 28.9-12.9 28.9-28.9S54.2 1 38.2 1 9.3 14 9.3 29.9s13 28.9 28.9 28.9z" clip-path="url(#SVGID_2_)" fill="none" stroke="#5e3ba6" stroke-width=".803"/><path d="M49.5 36.7h1.6c.3 0 .5-.2.5-.5v-5.4c0-.8-.7-1.5-1.5-1.5h-5 5c.8 0 1.5.7 1.5 1.5v5.4c0 .3-.2.5-.5.5h-1.6zm-4.1-11.4c0 1 .8 1.8 1.9 1.8 1 0 1.9-.8 1.9-1.8s-.8-1.8-1.9-1.8c-1.1 0-1.9.8-1.9 1.8zm-.3 18.9V32.3v11.9zm2.2 0v-7.8 7.8zm2.2 0V32.3v11.9zm-4-24.3c0 1-.8 1.8-1.9 1.8-1 0-1.8-.8-1.8-1.8s.8-1.8 1.8-1.8c1.1 0 1.9.8 1.9 1.8zm-10.7 0c0 1.1-.9 1.9-1.9 1.9-1.1 0-1.9-.9-1.9-1.9s.9-1.9 1.9-1.9c1.1 0 1.9.9 1.9 1.9zm-7.9 16.8h-1.6c-.3 0-.5-.2-.5-.5v-5.4c0-.8.7-1.5 1.5-1.5h5-5c-.8 0-1.5.7-1.5 1.5v5.4c0 .3.2.5.5.5h1.6zM31 25.3c0 1-.8 1.8-1.9 1.8-1 0-1.8-.8-1.8-1.8s.8-1.8 1.8-1.8c1.1 0 1.9.8 1.9 1.8zm.3 18.9V32.3v11.9zm-4.4 0V32.3v11.9zm2.2 0v-7.8 7.8zm11.6-8.3h1.8c.3 0 .5-.2.5-.5v-6c0-.9-.8-1.7-1.7-1.7h-6.2c-.9 0-1.7.8-1.7 1.7v6c0 .3.2.5.5.5h1.8H34c-.3 0-.5-.2-.5-.5v-6c0-.9.8-1.7 1.7-1.7h6.2c.9 0 1.7.8 1.7 1.7v6c0 .3-.2.5-.5.5h-1.9zm-.6-12.6c0 1-.8 1.8-1.9 1.8-1 0-1.9-.8-1.9-1.8s.8-1.8 1.9-1.8c1.1 0 1.9.8 1.9 1.8zm.6 20.9V31v13.2zm-5 0V31v13.2zm2.5 0v-8.6 8.6z" clip-path="url(#SVGID_2_)" fill="none" stroke="#5e3ba6" stroke-width=".603" stroke-linecap="round" stroke-miterlimit="10"/></svg>