<svg version="1.1" id="Layer_1" xmlns="http://www.w3.org/2000/svg" xmlns:xlink="http://www.w3.org/1999/xlink" x="0" y="0" viewBox="0 0 66.6 60.2" xml:space="preserve"><defs><path id="SVGID_1_" d="M0 0h66.6v60.2H0z"/></defs><clipPath id="SVGID_2_"><use xlink:href="#SVGID_1_" overflow="visible"/></clipPath><path d="M37.3 59.8c16 0 28.9-12.9 28.9-28.9S53.3 2 37.3 2 8.4 15 8.4 30.9s13 28.9 28.9 28.9" clip-path="url(#SVGID_2_)" fill="#b7c0dc"/><path d="M37.3 59.8c16 0 28.9-12.9 28.9-28.9S53.3 2 37.3 2 8.4 15 8.4 30.9s13 28.9 28.9 28.9z" clip-path="url(#SVGID_2_)" fill="none" stroke="#5e3ba6" stroke-width=".803"/><g clip-path="url(#SVGID_2_)"><text transform="translate(0 10.926)" font-size="13.658" font-family="FuturaLT-Bold" fill="#2e2057">4.</text></g><path d="M33.8 33.3h7.1-7.1zM28.3 32l1.3 1.3 2.1-2.1-2.1 2.1-1.3-1.3zm5.5-3.6h7.1-7.1zm-5.5-1.2l1.3 1.3 2.1-2.1-2.1 2.1-1.3-1.3zm18.8 1.9h-2.8v6.3h2.8v-6.3zm-2.8-2.6l1.4-.9 1.4.9v2.6h-2.8v-2.6zm-20.5-7.1h1-1zm27.1 0h-1 1zm-3.2 0H35.9h11.8zm-15.3 0h1.4-1.4zm-2.8 0H31h-1.4zm-2.7 0h1.4-1.4zm22.9 2.8h-25 25zm0 16h-25V16.6h25v21.6zm-19 8.3h13.1-13.1zm9.3 0v-4.2 4.2zm-5.5 0v-4.2 4.2zm-12.5-8.3h30.5-30.5zm28.8-18.8c1 0 1.7.8 1.7 1.7v19.5c0 .9-.8 1.7-1.7 1.7H37.4h13.5c.9 0 1.7-.8 1.7-1.7V21.1c0-.9-.8-1.7-1.7-1.7zm-27.1 0c-1 0-1.7.8-1.7 1.7v19.5c0 .9.8 1.7 1.7 1.7h11.5-11.5c-.9 0-1.7-.8-1.7-1.7V21.1c0-.9.7-1.7 1.7-1.7z" clip-path="url(#SVGID_2_)" fill="none" stroke="#5e3ba6" stroke-width=".603" stroke-linecap="square" stroke-miterlimit="10"/></svg>