<svg version="1.1" id="Layer_1" xmlns="http://www.w3.org/2000/svg" xmlns:xlink="http://www.w3.org/1999/xlink" x="0" y="0" viewBox="0 0 66.4 61.2" xml:space="preserve"><defs><path id="SVGID_1_" d="M0 0h66.4v61.2H0z"/></defs><clipPath id="SVGID_2_"><use xlink:href="#SVGID_1_" overflow="visible"/></clipPath><g clip-path="url(#SVGID_2_)"><text transform="translate(0 10.926)" font-size="13.658" font-family="FuturaLT-Bold" fill="#2e2057">1.</text></g><path d="M37.2 60.8c16 0 28.9-12.9 28.9-28.9S53.1 3 37.2 3 8.3 16 8.3 31.9s12.9 28.9 28.9 28.9" clip-path="url(#SVGID_2_)" fill="#b7c0dc"/><path d="M37.2 60.8c16 0 28.9-12.9 28.9-28.9S53.1 3 37.2 3 8.3 16 8.3 31.9s12.9 28.9 28.9 28.9z" clip-path="url(#SVGID_2_)" fill="none" stroke="#5e3ba6" stroke-width=".803"/><path d="M40.1 45.4c0-1.4 1.1-2.5 2.5-2.5a2.476 2.476 0 110 0c-1.4.1-2.5 1.2-2.5 2.5zm10.4 0v-1.1l-1.8-.3c-.2-.7-.5-1.4-.9-2l1.1-1.5-1.5-1.5-1.5 1.1c-.6-.4-1.3-.7-2-.8l-.3-1.8h-2.1l-.3 1.8c-.7.2-1.4.5-2 .8L37.7 39l-1.5 1.5 1.1 1.5c-.4.6-.7 1.3-.8 2l-1.8.3v1.1-1.1l1.8-.3c.2-.7.5-1.4.8-2l-1.1-1.5 1.5-1.5 1.5 1.1c.6-.4 1.3-.7 2-.8l.3-1.8h2.1l.3 1.8c.7.2 1.4.5 2 .8l1.5-1.1 1.5 1.5-1.1 1.5c.4.6.7 1.3.9 2l1.8.3v1.1zm-18.5 0v-15V36h2c.3 0 .6-.3.6-.6v-7.3c0-1.1-.9-1.9-1.9-1.9h-7c-1.1 0-1.9.9-1.9 1.9v7.3c0 .3.3.6.6.6h2v-5.6 15-15V36h-2c-.3 0-.6-.3-.6-.6v-7.3c0-1.1.9-1.9 1.9-1.9h7c1.1 0 1.9.9 1.9 1.9v7.3c0 .3-.3.6-.6.6h-2v-5.6 15zm-.6-23.7c0 1.2-.9 2.1-2.1 2.1s-2.1-.9-2.1-2.1c0-1.2.9-2.1 2.1-2.1s2.1 1 2.1 2.1zm-2.2 14v9.8-9.8zm8.5-5.3c1.5 0 2.7-1.2 2.7-2.7S39.2 25 37.7 25c-.6 0-1.1.2-1.5.5.4-.3 1-.5 1.5-.5 1.5 0 2.7 1.2 2.7 2.7s-1.2 2.7-2.7 2.7zM34.1 22c.7-.4 1.4-.8 2.2-.9l.3-2h2.3l.3 2c.8.2 1.5.5 2.2.9l1.6-1.2 1.6 1.6-1.2 1.6c.4.7.8 1.4.9 2.2l2 .3v2.3l-2 .3c-.2.8-.5 1.5-.9 2.2l1.2 1.6-1.6 1.7-1.6-1.2c-.7.4-1.4.7-2.2.9l-.3 2h-1.7 1.7l.3-2c.8-.2 1.5-.5 2.2-.9l1.6 1.2 1.6-1.6-1.2-1.6c.4-.7.8-1.4.9-2.2l2-.3v-2.3l-2-.3c-.2-.8-.5-1.5-.9-2.2l1.2-1.6-1.6-1.7-1.6 1.2c-.7-.4-1.4-.7-2.2-.9l-.3-2h-2.3l-.3 2c-.8.2-1.6.5-2.2.9z" clip-path="url(#SVGID_2_)" fill="none" stroke="#5e3ba6" stroke-width=".603" stroke-linecap="square" stroke-miterlimit="10"/></svg>