<svg id="Layer_1" data-name="Layer 1" xmlns="http://www.w3.org/2000/svg" viewBox="0 0 45.52 45.52"><defs><style>.cls-1{fill:#a17de9;}</style></defs><path class="cls-1" d="M43.82,21.82a1,1,0,0,0-1,.94V33a1.48,1.48,0,0,1-1.48,1.48H31.12a.44.44,0,0,1-.45-.42c-.34-4.29-2.2-5.19-3.7-5.19a5.06,5.06,0,0,1-4.84-2.41,1,1,0,0,0-1.32-.23,1,1,0,0,0-.23,1.31A6.87,6.87,0,0,0,27,30.76c.68,0,1.55.56,1.8,3.23a.44.44,0,0,1-.12.35.43.43,0,0,1-.34.15H6a.43.43,0,0,1-.34-.15A.44.44,0,0,1,5.52,34c.24-2.71,1.12-3.23,1.8-3.23a6.86,6.86,0,0,0,6.38-3.21.87.87,0,0,0,.16-.7.9.9,0,0,0-.39-.61,1,1,0,0,0-.54-.17,1,1,0,0,0-.77.4,5.06,5.06,0,0,1-4.84,2.41c-1.41,0-3.19.8-3.65,4.62a.45.45,0,0,1-.38.4H3.22a.48.48,0,0,1-.46-.29A1.43,1.43,0,0,1,2.61,33V4.13A1.48,1.48,0,0,1,4.09,2.65h13a.95.95,0,0,0,0-1.89h-13A3.37,3.37,0,0,0,.76,4.13V33a3.38,3.38,0,0,0,3.37,3.37H15.76a.45.45,0,0,1,.46.44v0c0,4-1.38,5.51-2,6a.5.5,0,0,1-.29.09h-3.8a1,1,0,0,0-1,.85.94.94,0,0,0,.85,1H35.39a1,1,0,0,0,1-.85.94.94,0,0,0-.85-1h-4a.47.47,0,0,1-.28-.09c-.59-.47-2-2-2-6a.45.45,0,0,1,.44-.46H41.39A3.38,3.38,0,0,0,44.76,33V22.76A.94.94,0,0,0,43.82,21.82ZM28.49,42.66a.47.47,0,0,1-.39.21H17.42a.47.47,0,0,1-.39-.21.51.51,0,0,1,0-.45,12,12,0,0,0,1.06-5.45.45.45,0,0,1,.44-.46H27a.45.45,0,0,1,.46.44v0a11.87,11.87,0,0,0,1.08,5.41A.48.48,0,0,1,28.49,42.66Z"/><path class="cls-1" d="M27,8.26H38.2a.94.94,0,0,0,0-1.88H27a.94.94,0,1,0,0,1.88Z"/><path class="cls-1" d="M27,13.88H38.2a.95.95,0,0,0,0-1.89H27a.95.95,0,0,0,0,1.89Z"/><path class="cls-1" d="M42.41.76H22.76a2.35,2.35,0,0,0-2.35,2.35h0V8.76a.95.95,0,0,0,1.89,0V3.11a.47.47,0,0,1,.46-.46H42.41a.45.45,0,0,1,.46.44V16.76a.9.9,0,0,1-.9.9H35.39a1,1,0,0,0-.59.2l-4.73,3.79a.43.43,0,0,1-.29.1.34.34,0,0,1-.2,0,.47.47,0,0,1-.26-.42V18.55a.94.94,0,0,0-.94-.94H25.57a.94.94,0,1,0,0,1.88H27a.47.47,0,0,1,.46.46v4.21A.94.94,0,0,0,28,25a.86.86,0,0,0,.41.1A.94.94,0,0,0,29,24.9l6.64-5.31a.48.48,0,0,1,.29-.1H42a2.79,2.79,0,0,0,2.79-2.73V3.11A2.35,2.35,0,0,0,42.41.76Z"/><path class="cls-1" d="M12,16.94c0,4.58,2.26,8.17,5.15,8.17s5.16-3.59,5.16-8.17c0-5.73-3.61-6.35-5.16-6.35S12,11.21,12,16.94Zm8.42,0c0,3.35-1.52,6.28-3.27,6.28s-3.26-2.93-3.26-6.28c0-4.47,2.46-4.47,3.26-4.47S20.41,12.47,20.41,16.94Z"/></svg>