<?xml version="1.0" encoding="utf-8"?>
<!-- Generator: Adobe Illustrator 25.2.1, SVG Export Plug-In . SVG Version: 6.00 Build 0)  -->
<svg version="1.1" id="Layer_1" xmlns="http://www.w3.org/2000/svg" xmlns:xlink="http://www.w3.org/1999/xlink" x="0px" y="0px"
	 viewBox="0 0 45.5 45.5" style="enable-background:new 0 0 45.5 45.5;" xml:space="preserve">
<style type="text/css">
	.st0{fill:#5274B9;}
</style>
<path class="st0" d="M43.8,21.8c-0.5,0-1,0.4-1,0.9V33c0,0.8-0.7,1.5-1.5,1.5H31.1c-0.2,0-0.4-0.2-0.5-0.4c-0.3-4.3-2.2-5.2-3.7-5.2
	c-1.9,0.2-3.8-0.7-4.8-2.4c-0.3-0.4-0.9-0.5-1.3-0.2c-0.4,0.3-0.5,0.9-0.2,1.3c1.4,2.2,3.8,3.4,6.4,3.2c0.7,0,1.5,0.6,1.8,3.2
	c0,0.1,0,0.3-0.1,0.3c-0.1,0.1-0.2,0.2-0.3,0.2H6c-0.1,0-0.3-0.1-0.3-0.2c-0.1-0.1-0.1-0.2-0.1-0.3c0.2-2.7,1.1-3.2,1.8-3.2
	c2.6,0.2,5-1,6.4-3.2c0.2-0.2,0.2-0.5,0.2-0.7c0-0.2-0.2-0.5-0.4-0.6c-0.2-0.1-0.3-0.2-0.5-0.2c-0.3,0-0.6,0.2-0.8,0.4
	c-1,1.7-2.9,2.6-4.8,2.4c-1.4,0-3.2,0.8-3.7,4.6c0,0.2-0.2,0.4-0.4,0.4H3.2c-0.2,0-0.4-0.1-0.5-0.3c-0.1-0.2-0.1-0.4-0.2-0.6V4.1
	c0-0.8,0.7-1.5,1.5-1.5l0,0h13c0.5-0.1,0.9-0.5,0.8-1c0-0.4-0.4-0.8-0.8-0.8h-13c-1.8,0-3.3,1.5-3.3,3.4V33c0,1.9,1.5,3.4,3.4,3.4
	h11.6c0.2,0,0.5,0.2,0.5,0.4c0,0,0,0,0,0l0,0c0,4-1.4,5.5-2,6c-0.1,0.1-0.2,0.1-0.3,0.1h-3.8c-0.5,0-0.9,0.4-1,0.8
	c0,0.5,0.3,1,0.9,1h25.4c0.5,0,0.9-0.4,1-0.8c0-0.5-0.3-1-0.8-1h-4c-0.1,0-0.2,0-0.3-0.1c-0.6-0.5-2-2-2-6c0-0.2,0.2-0.5,0.4-0.5
	c0,0,0,0,0,0h11.7c1.9,0,3.4-1.5,3.4-3.3V22.8C44.8,22.2,44.3,21.8,43.8,21.8z M28.5,42.7c-0.1,0.1-0.2,0.2-0.4,0.2H17.4
	c-0.2,0-0.3-0.1-0.4-0.2c-0.1-0.1-0.1-0.3,0-0.5c0.8-1.7,1.1-3.6,1.1-5.5c0-0.2,0.2-0.5,0.4-0.5c0,0,0,0,0,0H27
	c0.2,0,0.5,0.2,0.5,0.4c0,0,0,0,0,0l0,0c-0.1,1.9,0.3,3.7,1.1,5.4C28.6,42.3,28.6,42.5,28.5,42.7z"/>
<path class="st0" d="M27,8.3h11.2c0.5,0,0.9-0.4,0.9-0.9s-0.4-0.9-0.9-0.9H27c-0.5,0-0.9,0.4-0.9,0.9S26.5,8.3,27,8.3z"/>
<path class="st0" d="M27,13.9h11.2c0.5-0.1,0.9-0.5,0.8-1c0-0.4-0.4-0.8-0.8-0.8H27c-0.5,0.1-0.9,0.5-0.8,1
	C26.2,13.5,26.6,13.8,27,13.9z"/>
<path class="st0" d="M42.4,0.8H22.8c-1.3,0-2.4,1.1-2.4,2.3c0,0,0,0,0,0l0,0v5.7c0.1,0.5,0.5,0.9,1,0.8c0.4,0,0.8-0.4,0.8-0.8V3.1
	c0-0.3,0.2-0.5,0.5-0.5h19.7c0.2,0,0.5,0.2,0.5,0.4c0,0,0,0,0,0v13.7c0,0.5-0.4,0.9-0.9,0.9l0,0h-6.6c-0.2,0-0.4,0.1-0.6,0.2
	l-4.7,3.8c-0.1,0.1-0.2,0.1-0.3,0.1c-0.1,0-0.1,0-0.2,0c-0.2-0.1-0.3-0.2-0.3-0.4v-2.8c0-0.5-0.4-0.9-0.9-0.9c0,0,0,0,0,0h-2.8
	c-0.5,0-0.9,0.4-0.9,0.9c0,0.5,0.4,0.9,0.9,0.9c0,0,0,0,0,0H27c0.3,0,0.5,0.2,0.5,0.5v4.2c0,0.4,0.2,0.7,0.5,0.8
	c0.1,0.1,0.3,0.1,0.4,0.1c0.2,0,0.4-0.1,0.6-0.2l6.6-5.3c0.1-0.1,0.2-0.1,0.3-0.1H42c1.5,0,2.8-1.2,2.8-2.7V3.1
	C44.8,1.8,43.7,0.8,42.4,0.8C42.4,0.8,42.4,0.8,42.4,0.8z"/>
<path class="st0" d="M12,16.9c0,4.6,2.3,8.2,5.1,8.2s5.2-3.6,5.2-8.2c0-5.7-3.6-6.4-5.2-6.4S12,11.2,12,16.9z M20.4,16.9
	c0,3.4-1.5,6.3-3.3,6.3s-3.3-2.9-3.3-6.3c0-4.5,2.5-4.5,3.3-4.5S20.4,12.5,20.4,16.9L20.4,16.9z"/>
</svg>
