<svg id="Layer_1" data-name="Layer 1" xmlns="http://www.w3.org/2000/svg" viewBox="0 0 45.52 45.52"><defs><style>.cls-1{fill:#a17de9;}</style></defs><path class="cls-1" d="M17.14,6.42a1,1,0,1,0-.94-1v0A1,1,0,0,0,17.14,6.42Z"/><path class="cls-1" d="M24.16,42.87h-21a.45.45,0,0,1-.46-.44V8.76a.47.47,0,0,1,.46-.46H6a.47.47,0,0,1,.42.46v1.37a.94.94,0,0,0,.94.94H27a.94.94,0,0,0,.94-.94h0V8.76a.47.47,0,0,1,.47-.46h2.8a.47.47,0,0,1,.46.46V20a1,1,0,0,0,.85,1,.94.94,0,0,0,1-.85.61.61,0,0,0,0-.19V8.76a2.36,2.36,0,0,0-2.35-2.34h-2.8A.47.47,0,0,1,27.91,6V4.51A.94.94,0,0,0,27,3.57H22a.47.47,0,0,1-.4-.23,5.12,5.12,0,0,0-8.89,0,.47.47,0,0,1-.4.23h-5a.94.94,0,0,0-.94.94h0v1.4a.47.47,0,0,1-.47.47H3.11A2.35,2.35,0,0,0,.76,8.73V42.41a2.35,2.35,0,0,0,2.35,2.35h21a1,1,0,0,0,1-.85.94.94,0,0,0-.85-1h-.14Zm-15.9-37a.46.46,0,0,1,.48-.46h4.49a1,1,0,0,0,.89-.62,3.24,3.24,0,0,1,6.13,0,1,1,0,0,0,.89.62h4.47a.48.48,0,0,1,.46.46V8.76a.47.47,0,0,1-.46.46H8.76a.47.47,0,0,1-.5-.42V5.91Z"/><path class="cls-1" d="M27.91,18.55a.94.94,0,0,0-.94-.94H18.55a.94.94,0,1,0,0,1.88H27A.94.94,0,0,0,27.91,18.55Z"/><path class="cls-1" d="M22.3,27a.94.94,0,0,0-.94-.94H18.55a.94.94,0,0,0,0,1.88h2.81A.94.94,0,0,0,22.3,27Z"/><path class="cls-1" d="M18.55,34.45a.95.95,0,0,0,0,1.89H20a1,1,0,0,0,1-.85.94.94,0,0,0-.85-1,.61.61,0,0,0-.19,0Z"/><path class="cls-1" d="M14.9,15a.88.88,0,0,0-.56-.19,1,1,0,0,0-.76.38L10.34,19.5a.48.48,0,0,1-.33.18h0a.48.48,0,0,1-.32-.13L8,17.88a1,1,0,0,0-1.34,0,1,1,0,0,0,0,1.34L9.43,22l.09.07.07.06h.17a.75.75,0,0,0,.33.07h0a.81.81,0,0,0,.37-.09h0l.1-.06.09-.06h.06l.07-.09a.3.3,0,0,1,.08-.08L15,16.25a.92.92,0,0,0,.18-.7A.88.88,0,0,0,14.9,15Z"/><path class="cls-1" d="M14.9,23.41a.94.94,0,0,0-1.32.19h0l-3.24,4.32a.44.44,0,0,1-.33.18h0A.48.48,0,0,1,9.69,28L8,26.3a1,1,0,0,0-1.34,0,1,1,0,0,0,0,1.34l2.78,2.77.09.07a.23.23,0,0,1,.07.07h.16a1,1,0,0,0,.33.06h0a1,1,0,0,0,.37-.08h0l.1-.07.09-.05h.06l.07-.09a.27.27,0,0,1,.08-.07l4.24-5.49a.94.94,0,0,0-.19-1.32h0Z"/><path class="cls-1" d="M14.34,31.64a1,1,0,0,0-.76.38l-3.24,4.32a.4.4,0,0,1-.33.18h0a.43.43,0,0,1-.32-.14L8,34.76a.94.94,0,0,0-1.33,0h0a.94.94,0,0,0,0,1.33h0l2.78,2.78.09.06.07.07h0l.09,0h.08a1,1,0,0,0,.33.06h0a1,1,0,0,0,.37-.08h0l.1-.06.09-.06h.06l.07-.09a.27.27,0,0,1,.08-.07L15,33.18a.94.94,0,0,0-.19-1.32h0A1,1,0,0,0,14.34,31.64Z"/><path class="cls-1" d="M34,23.22A10.77,10.77,0,1,0,44.76,34h0A10.78,10.78,0,0,0,34,23.22Zm0,19.65A8.88,8.88,0,1,1,42.87,34,8.89,8.89,0,0,1,34,42.87Z"/><path class="cls-1" d="M37.5,30.24a1,1,0,0,0-.76.38L33.5,34.94a.48.48,0,0,1-.33.18h0a.51.51,0,0,1-.33-.13l-1.66-1.67a.95.95,0,1,0-1.34,1.34l2.78,2.77.09.07.07.07h.16a1,1,0,0,0,.33.06h0a1,1,0,0,0,.37-.08h0l.09-.06.09-.06h.06l.07-.09s0-.06.08-.07l4.22-5.51a.92.92,0,0,0,.18-.7.86.86,0,0,0-.37-.62A.89.89,0,0,0,37.5,30.24Z"/></svg>