<?xml version="1.0" encoding="utf-8"?>
<!-- Generator: Adobe Illustrator 25.2.1, SVG Export Plug-In . SVG Version: 6.00 Build 0)  -->
<svg version="1.1" id="Layer_1" xmlns="http://www.w3.org/2000/svg" xmlns:xlink="http://www.w3.org/1999/xlink" x="0px" y="0px"
	 viewBox="0 0 45.5 45.5" style="enable-background:new 0 0 45.5 45.5;" xml:space="preserve">
<style type="text/css">
	.st0{fill:#5274B9;}
</style>
<path class="st0" d="M17.1,6.4c0.6,0,1-0.4,1.1-0.9c0-0.6-0.4-1-0.9-1.1c-0.6,0-1,0.4-1.1,0.9c0,0,0,0,0,0.1l0,0
	C16.2,5.9,16.6,6.4,17.1,6.4z"/>
<path class="st0" d="M24.2,42.9h-21c-0.2,0-0.5-0.2-0.5-0.4c0,0,0,0,0,0V8.8c0-0.3,0.2-0.5,0.5-0.5H6c0.2,0,0.4,0.2,0.4,0.5v1.4
	c0,0.5,0.4,0.9,0.9,0.9H27c0.5,0,0.9-0.4,0.9-0.9l0,0l0,0V8.8c0-0.3,0.2-0.5,0.5-0.5h2.8c0.3,0,0.5,0.2,0.5,0.5V20
	c0,0.5,0.4,0.9,0.8,1c0.5,0,1-0.3,1-0.9c0-0.1,0-0.1,0-0.2V8.8c0-1.3-1.1-2.3-2.4-2.3h-2.8c-0.2,0-0.4-0.2-0.5-0.4V4.5
	c0-0.5-0.4-0.9-0.9-0.9h-5c-0.2,0-0.3-0.1-0.4-0.2c-1.4-2.5-4.5-3.3-7-1.9c-0.8,0.5-1.5,1.1-1.9,1.9c-0.1,0.1-0.2,0.2-0.4,0.2h-5
	C6.8,3.6,6.4,4,6.4,4.5l0,0v1.4c0,0.3-0.2,0.5-0.5,0.5H3.1c-1.3,0-2.3,1.1-2.3,2.3v33.7c0,1.3,1.1,2.3,2.3,2.3h21
	c0.5,0,0.9-0.4,1-0.8c0-0.5-0.3-1-0.9-1L24.2,42.9L24.2,42.9z M8.3,5.9c0-0.3,0.2-0.5,0.5-0.5c0,0,0,0,0,0h4.5
	c0.4,0,0.7-0.3,0.9-0.6c0.6-1.7,2.4-2.6,4.1-2c0.9,0.3,1.7,1.1,2,2c0.1,0.4,0.5,0.6,0.9,0.6h4.5c0.2,0,0.4,0.2,0.5,0.5v2.9
	c0,0.3-0.2,0.5-0.5,0.5H8.8c-0.3,0-0.5-0.2-0.5-0.4V5.9L8.3,5.9z"/>
<path class="st0" d="M27.9,18.5c0-0.5-0.4-0.9-0.9-0.9c0,0,0,0,0,0h-8.4c-0.5,0-0.9,0.4-0.9,0.9c0,0.5,0.4,0.9,0.9,0.9c0,0,0,0,0,0
	H27C27.5,19.5,27.9,19.1,27.9,18.5z"/>
<path class="st0" d="M22.3,27c0-0.5-0.4-0.9-0.9-0.9c0,0,0,0,0,0h-2.8c-0.5,0-0.9,0.4-0.9,0.9c0,0.5,0.4,0.9,0.9,0.9h2.8
	C21.9,27.9,22.3,27.5,22.3,27z"/>
<path class="st0" d="M18.5,34.5c-0.5,0.1-0.9,0.5-0.8,1c0,0.4,0.4,0.8,0.8,0.8H20c0.5,0,0.9-0.4,1-0.8c0-0.5-0.3-1-0.9-1
	c-0.1,0-0.1,0-0.2,0L18.5,34.5z"/>
<path class="st0" d="M14.9,15c-0.2-0.1-0.4-0.2-0.6-0.2c-0.3,0-0.6,0.1-0.8,0.4l-3.2,4.3c-0.1,0.1-0.2,0.2-0.3,0.2l0,0
	c-0.1,0-0.2,0-0.3-0.1L8,17.9c-0.4-0.3-1-0.3-1.3,0c-0.3,0.4-0.3,1,0,1.3L9.4,22l0.1,0.1l0.1,0.1h0.2c0.1,0,0.2,0.1,0.3,0.1l0,0
	c0.1,0,0.3,0,0.4-0.1l0,0l0.1-0.1l0.1-0.1h0.1l0.1-0.1c0,0,0-0.1,0.1-0.1l4.1-5.6c0.2-0.2,0.2-0.5,0.2-0.7
	C15.2,15.3,15.1,15.1,14.9,15z"/>
<path class="st0" d="M14.9,23.4c-0.4-0.3-1-0.2-1.3,0.2c0,0,0,0,0,0l0,0l-3.2,4.3c-0.1,0.1-0.2,0.2-0.3,0.2l0,0
	c-0.1,0-0.2,0-0.3-0.1L8,26.3c-0.4-0.3-1-0.3-1.3,0c-0.3,0.4-0.3,1,0,1.3l2.8,2.8l0.1,0.1c0,0,0.1,0,0.1,0.1h0.2
	c0.1,0,0.2,0.1,0.3,0.1l0,0c0.1,0,0.3,0,0.4-0.1l0,0l0.1-0.1l0.1,0h0.1l0.1-0.1c0,0,0-0.1,0.1-0.1l4.2-5.5
	C15.4,24.3,15.3,23.8,14.9,23.4C14.9,23.4,14.9,23.4,14.9,23.4L14.9,23.4L14.9,23.4z"/>
<path class="st0" d="M14.3,31.6c-0.3,0-0.6,0.1-0.8,0.4l-3.2,4.3c-0.1,0.1-0.2,0.2-0.3,0.2l0,0c-0.1,0-0.2-0.1-0.3-0.1L8,34.8
	c-0.4-0.4-1-0.4-1.3,0c0,0,0,0,0,0l0,0c-0.4,0.4-0.4,1,0,1.3c0,0,0,0,0,0l0,0l2.8,2.8l0.1,0.1L9.6,39l0,0h0.1h0.1
	c0.1,0,0.2,0.1,0.3,0.1l0,0c0.1,0,0.3,0,0.4-0.1l0,0l0.1-0.1l0.1-0.1h0.1l0.1-0.1c0,0,0-0.1,0.1-0.1l4.1-5.5c0.3-0.4,0.2-1-0.2-1.3
	c0,0,0,0,0,0l0,0C14.7,31.7,14.5,31.7,14.3,31.6z"/>
<path class="st0" d="M34,23.2c-5.9,0-10.8,4.8-10.8,10.8S28,44.8,34,44.8c5.9,0,10.8-4.8,10.8-10.8l0,0C44.8,28.1,39.9,23.2,34,23.2
	z M34,42.9c-4.9,0-8.9-4-8.9-8.9s4-8.9,8.9-8.9c4.9,0,8.9,4,8.9,8.9c0,0,0,0,0,0C42.9,38.9,38.9,42.9,34,42.9z"/>
<path class="st0" d="M37.5,30.2c-0.3,0-0.6,0.1-0.8,0.4l-3.2,4.3c-0.1,0.1-0.2,0.2-0.3,0.2l0,0c-0.1,0-0.2,0-0.3-0.1l-1.7-1.7
	c-0.3-0.4-0.9-0.4-1.3-0.1s-0.4,0.9-0.1,1.3c0,0,0.1,0.1,0.1,0.1l2.8,2.8l0.1,0.1l0.1,0.1h0.2c0.1,0,0.2,0.1,0.3,0.1l0,0
	c0.1,0,0.3,0,0.4-0.1l0,0l0.1-0.1l0.1-0.1h0.1l0.1-0.1c0,0,0-0.1,0.1-0.1l4.2-5.5c0.2-0.2,0.2-0.5,0.2-0.7c0-0.3-0.2-0.5-0.4-0.6
	C37.9,30.3,37.7,30.2,37.5,30.2z"/>
</svg>
