<?xml version="1.0" encoding="utf-8"?>
<!-- Generator: Adobe Illustrator 24.2.3, SVG Export Plug-In . SVG Version: 6.00 Build 0)  -->
<svg version="1.1" id="Group_1_copy_9_1_" xmlns="http://www.w3.org/2000/svg" xmlns:xlink="http://www.w3.org/1999/xlink" x="0px"
	 y="0px" viewBox="0 0 190.08 85.92" style="enable-background:new 0 0 190.08 85.92;" xml:space="preserve">
<style type="text/css">
	.st0{fill:#FFFFFF;}
</style>
<g id="Shape_1">
	<g>
		<path class="st0" d="M38.24,19.11c-0.09-0.09-0.21-0.14-0.33-0.14H24.2c-0.12,0-0.24,0.05-0.33,0.14l-5.36,5.36
			c-0.09,0.09-0.14,0.21-0.14,0.33v16.52c0,0.12,0.05,0.24,0.14,0.33l5.36,5.36c0.09,0.09,0.21,0.14,0.33,0.14h13.71
			c0.12,0,0.24-0.05,0.33-0.14l5.36-5.36c0.09-0.09,0.14-0.21,0.14-0.33v-4.97c0-0.26-0.21-0.47-0.47-0.47h-4.7
			c-0.26,0-0.47,0.21-0.47,0.47v4.7c0,0.26-0.21,0.47-0.47,0.47H24.48c-0.26,0-0.47-0.21-0.47-0.47V25.08
			c0-0.26,0.21-0.47,0.47-0.47h13.16c0.26,0,0.47,0.21,0.47,0.47v4.7c0,0.26,0.21,0.47,0.47,0.47h4.7c0.26,0,0.47-0.21,0.47-0.47
			v-4.97c0-0.12-0.05-0.24-0.14-0.33L38.24,19.11z M132.21,19.11c-0.09-0.09-0.21-0.14-0.33-0.14h-13.71
			c-0.12,0-0.24,0.05-0.33,0.14l-5.36,5.36c-0.09,0.09-0.14,0.21-0.14,0.33v16.52c0,0.12,0.05,0.24,0.14,0.33l5.36,5.36
			c0.09,0.09,0.21,0.14,0.33,0.14h13.71c0.12,0,0.24-0.05,0.33-0.14l5.36-5.36c0.09-0.09,0.14-0.21,0.14-0.33v-4.97
			c0-0.26-0.21-0.47-0.47-0.47h-4.7c-0.26,0-0.47,0.21-0.47,0.47v4.7c0,0.26-0.21,0.47-0.47,0.47h-13.16
			c-0.26,0-0.47-0.21-0.47-0.47V25.08c0-0.26,0.21-0.47,0.47-0.47h13.16c0.26,0,0.47,0.21,0.47,0.47v4.7c0,0.26,0.21,0.47,0.47,0.47
			h4.7c0.26,0,0.47-0.21,0.47-0.47v-4.97c0-0.12-0.05-0.24-0.14-0.33L132.21,19.11z M85.56,18.98h-4.7c-0.26,0-0.47,0.21-0.47,0.47
			v21.61c0,0.26-0.21,0.47-0.47,0.47H66.76c-0.26,0-0.47-0.21-0.47-0.47V19.44c0-0.26-0.21-0.47-0.47-0.47h-4.7
			c-0.26,0-0.47,0.21-0.47,0.47v21.88c0,0.12,0.05,0.24,0.14,0.33l5.36,5.36c0.09,0.09,0.21,0.14,0.33,0.14h13.71
			c0.12,0,0.24-0.05,0.33-0.14l5.36-5.36c0.09-0.09,0.14-0.21,0.14-0.33V19.44C86.03,19.19,85.82,18.98,85.56,18.98z M54.55,7.7
			h-4.7c-0.26,0-0.47,0.21-0.47,0.47v38.52c0,0.26,0.21,0.47,0.47,0.47h4.7c0.26,0,0.47-0.21,0.47-0.47V8.17
			C55.02,7.91,54.81,7.7,54.55,7.7z M168.58,24.47l-5.36-5.36c-0.09-0.09-0.21-0.14-0.33-0.14h-13.43c-0.26,0-0.47-0.21-0.47-0.47
			V8.17c0-0.26-0.21-0.47-0.47-0.47h-4.7c-0.26,0-0.47,0.21-0.47,0.47v38.52c0,0.26,0.21,0.47,0.47,0.47h4.7
			c0.26,0,0.47-0.21,0.47-0.47V25.08c0-0.26,0.21-0.47,0.47-0.47h13.16c0.26,0,0.47,0.21,0.47,0.47v21.61
			c0,0.26,0.21,0.47,0.47,0.47h4.7c0.26,0,0.47-0.21,0.47-0.47V24.81C168.72,24.68,168.67,24.56,168.58,24.47z M108.11,18.98H97.77
			c-0.26,0-0.47-0.21-0.47-0.47V8.17c0-0.26-0.21-0.47-0.47-0.47h-4.7c-0.26,0-0.47,0.21-0.47,0.47v33.16
			c0,0.12,0.05,0.24,0.14,0.33l5.36,5.36c0.09,0.09,0.21,0.14,0.33,0.14h10.61c0.26,0,0.47-0.21,0.47-0.47v-4.7
			c0-0.26-0.21-0.47-0.47-0.47H97.77c-0.26,0-0.47-0.21-0.47-0.47V25.08c0-0.26,0.21-0.47,0.47-0.47h10.34
			c0.26,0,0.47-0.21,0.47-0.47v-4.7C108.58,19.19,108.37,18.98,108.11,18.98z"/>
	</g>
</g>
<g id="HEALTH">
	<g>
		<path class="st0" d="M28.98,68.82h-6.03v-6.59H19.1v16.83h3.85v-6.83h6.03v6.83h3.82V62.23h-3.82V68.82z M51.74,72.16h6.51v-3.27
			h-6.51v-3.22h7.69v-3.44H48.04v16.83h11.63V75.6h-7.93V72.16z M77.68,62.23l-5.65,16.83h4.04l1.03-3.37h6.13l1.03,3.37h4.06
			l-5.65-16.83H77.68z M78.14,72.42l1.88-6.08h0.31l1.88,6.08H78.14z M106.98,62.23h-4.06v16.83h12v-3.68h-7.93V62.23z
			 M127.27,65.74h4.52v13.32h3.8V65.74h4.54v-3.51h-12.86V65.74z M164.05,62.23v6.59h-6.03v-6.59h-3.85v16.83h3.85v-6.83h6.03v6.83
			h3.82V62.23H164.05z"/>
	</g>
</g>
<g id="Rectangle_3">
	<g>
		<polygon class="st0" points="19.62,53.54 18.48,55.34 167.08,55.34 168.22,53.54 		"/>
	</g>
</g>
</svg>
