<?xml version="1.0" encoding="utf-8"?>
<!-- Generator: Adobe Illustrator 24.2.3, SVG Export Plug-In . SVG Version: 6.00 Build 0)  -->
<svg version="1.1" id="Group_1_copy_9_1_" xmlns="http://www.w3.org/2000/svg" xmlns:xlink="http://www.w3.org/1999/xlink" x="0px"
	 y="0px" viewBox="0 0 190.08 85.92" style="enable-background:new 0 0 190.08 85.92;" xml:space="preserve">
<style type="text/css">
	.st0{fill:#FFFFFF;}
</style>
<g id="Shape_1">
	<g>
		<path class="st0" d="M38.24,19.11c-0.09-0.09-0.21-0.14-0.33-0.14H24.2c-0.12,0-0.24,0.05-0.33,0.14l-5.36,5.36
			c-0.09,0.09-0.14,0.21-0.14,0.33v16.52c0,0.12,0.05,0.24,0.14,0.33l5.36,5.36c0.09,0.09,0.21,0.14,0.33,0.14h13.71
			c0.12,0,0.24-0.05,0.33-0.14l5.36-5.36c0.09-0.09,0.14-0.21,0.14-0.33v-4.97c0-0.26-0.21-0.47-0.47-0.47h-4.7
			c-0.26,0-0.47,0.21-0.47,0.47v4.7c0,0.26-0.21,0.47-0.47,0.47H24.48c-0.26,0-0.47-0.21-0.47-0.47V25.08
			c0-0.26,0.21-0.47,0.47-0.47h13.16c0.26,0,0.47,0.21,0.47,0.47v4.7c0,0.26,0.21,0.47,0.47,0.47h4.7c0.26,0,0.47-0.21,0.47-0.47
			v-4.97c0-0.12-0.05-0.24-0.14-0.33L38.24,19.11z M132.21,19.11c-0.09-0.09-0.21-0.14-0.33-0.14h-13.71
			c-0.12,0-0.24,0.05-0.33,0.14l-5.36,5.36c-0.09,0.09-0.14,0.21-0.14,0.33v16.52c0,0.12,0.05,0.24,0.14,0.33l5.36,5.36
			c0.09,0.09,0.21,0.14,0.33,0.14h13.71c0.12,0,0.24-0.05,0.33-0.14l5.36-5.36c0.09-0.09,0.14-0.21,0.14-0.33v-4.97
			c0-0.26-0.21-0.47-0.47-0.47h-4.7c-0.26,0-0.47,0.21-0.47,0.47v4.7c0,0.26-0.21,0.47-0.47,0.47h-13.16
			c-0.26,0-0.47-0.21-0.47-0.47V25.08c0-0.26,0.21-0.47,0.47-0.47h13.16c0.26,0,0.47,0.21,0.47,0.47v4.7c0,0.26,0.21,0.47,0.47,0.47
			h4.7c0.26,0,0.47-0.21,0.47-0.47v-4.97c0-0.12-0.05-0.24-0.14-0.33L132.21,19.11z M85.56,18.98h-4.7c-0.26,0-0.47,0.21-0.47,0.47
			v21.61c0,0.26-0.21,0.47-0.47,0.47H66.76c-0.26,0-0.47-0.21-0.47-0.47V19.44c0-0.26-0.21-0.47-0.47-0.47h-4.7
			c-0.26,0-0.47,0.21-0.47,0.47v21.88c0,0.12,0.05,0.24,0.14,0.33l5.36,5.36c0.09,0.09,0.21,0.14,0.33,0.14h13.71
			c0.12,0,0.24-0.05,0.33-0.14l5.36-5.36c0.09-0.09,0.14-0.21,0.14-0.33V19.44C86.03,19.19,85.82,18.98,85.56,18.98z M54.55,7.7
			h-4.7c-0.26,0-0.47,0.21-0.47,0.47v38.52c0,0.26,0.21,0.47,0.47,0.47h4.7c0.26,0,0.47-0.21,0.47-0.47V8.17
			C55.02,7.91,54.81,7.7,54.55,7.7z M168.58,24.47l-5.36-5.36c-0.09-0.09-0.21-0.14-0.33-0.14h-13.43c-0.26,0-0.47-0.21-0.47-0.47
			V8.17c0-0.26-0.21-0.47-0.47-0.47h-4.7c-0.26,0-0.47,0.21-0.47,0.47v38.52c0,0.26,0.21,0.47,0.47,0.47h4.7
			c0.26,0,0.47-0.21,0.47-0.47V25.08c0-0.26,0.21-0.47,0.47-0.47h13.16c0.26,0,0.47,0.21,0.47,0.47v21.61
			c0,0.26,0.21,0.47,0.47,0.47h4.7c0.26,0,0.47-0.21,0.47-0.47V24.81C168.72,24.68,168.67,24.56,168.58,24.47z M108.11,18.98H97.77
			c-0.26,0-0.47-0.21-0.47-0.47V8.17c0-0.26-0.21-0.47-0.47-0.47h-4.7c-0.26,0-0.47,0.21-0.47,0.47v33.16
			c0,0.12,0.05,0.24,0.14,0.33l5.36,5.36c0.09,0.09,0.21,0.14,0.33,0.14h10.61c0.26,0,0.47-0.21,0.47-0.47v-4.7
			c0-0.26-0.21-0.47-0.47-0.47H97.77c-0.26,0-0.47-0.21-0.47-0.47V25.08c0-0.26,0.21-0.47,0.47-0.47h10.34
			c0.26,0,0.47-0.21,0.47-0.47v-4.7C108.58,19.19,108.37,18.98,108.11,18.98z"/>
	</g>
</g>
<g id="Rectangle_3">
	<g>
		<polygon class="st0" points="19.62,53.54 18.48,55.34 167.08,55.34 168.22,53.54 		"/>
	</g>
</g>
<g id="DIAGNOSTICS">
	<g>
		<path class="st0" d="M22.3,61.99h-3.9v11.24h3.9c1.71,0,3.09-0.49,4.14-1.47c1.04-0.98,1.57-2.37,1.57-4.18
			c0-1.79-0.52-3.17-1.55-4.14C25.42,62.48,24.03,61.99,22.3,61.99z M24.52,69.94c-0.58,0.59-1.31,0.88-2.19,0.88H21v-6.44h1.33
			c0.89,0,1.62,0.28,2.2,0.83c0.58,0.55,0.87,1.32,0.87,2.3C25.4,68.55,25.11,69.36,24.52,69.94z M34.12,73.24h2.67V61.99h-2.67
			V73.24z M46.17,61.99l-3.77,11.24h2.7l0.69-2.25h4.1l0.69,2.25h2.71l-3.77-11.24H46.17z M46.47,68.8l1.25-4.06h0.21l1.25,4.06
			H46.47z M63.32,69h2.67v1.22c-0.64,0.58-1.39,0.87-2.25,0.87c-1.01,0-1.76-0.3-2.26-0.91c-0.5-0.6-0.75-1.42-0.75-2.43
			c0-1.03,0.25-1.87,0.75-2.54c0.5-0.66,1.21-1,2.12-1c0.55,0,1.02,0.14,1.41,0.41c0.4,0.27,0.63,0.61,0.71,1h2.63
			c-0.1-1.1-0.56-2.01-1.41-2.72c-0.84-0.71-2.02-1.07-3.53-1.07c-1.57,0-2.85,0.56-3.84,1.68c-0.99,1.12-1.48,2.56-1.48,4.31
			c0,1.65,0.45,2.99,1.35,4.02c0.9,1.03,2.12,1.55,3.66,1.55c0.76,0,1.4-0.13,1.93-0.39c0.52-0.26,0.92-0.54,1.17-0.85h0.19
			l0.34,1.08h1.75v-6.23h-5.17V69z M82.03,68.48h-0.19l-4.21-6.49H75.1v11.24h2.46v-6.52h0.19l4.37,6.52h2.36V61.99h-2.44V68.48z
			 M96.33,61.83c-1.66,0-3.04,0.55-4.13,1.65c-1.09,1.1-1.64,2.48-1.64,4.13c0,1.66,0.54,3.04,1.63,4.14
			c1.09,1.1,2.47,1.65,4.14,1.65c1.64,0,3-0.55,4.1-1.65c1.09-1.1,1.64-2.48,1.64-4.13c0-1.65-0.55-3.02-1.64-4.13
			C99.33,62.39,97.97,61.83,96.33,61.83z M98.52,69.99c-0.58,0.63-1.31,0.95-2.19,0.95c-0.9,0-1.64-0.32-2.22-0.95
			c-0.58-0.63-0.88-1.42-0.88-2.38c0-0.95,0.29-1.75,0.88-2.38c0.58-0.63,1.33-0.95,2.22-0.95c0.87,0,1.6,0.32,2.18,0.95
			c0.59,0.63,0.88,1.42,0.88,2.38C99.4,68.57,99.1,69.36,98.52,69.99z M112.41,66.48c-0.69-0.28-1.16-0.53-1.43-0.75
			c-0.27-0.22-0.4-0.48-0.4-0.78c0-0.3,0.11-0.54,0.33-0.71c0.22-0.17,0.51-0.26,0.86-0.26c0.46,0,0.82,0.12,1.08,0.37
			c0.26,0.25,0.41,0.57,0.44,0.96h2.33c0-0.99-0.35-1.81-1.04-2.48c-0.7-0.67-1.64-1-2.83-1c-1.08,0-1.97,0.29-2.67,0.88
			c-0.7,0.59-1.05,1.4-1.05,2.43c0,0.86,0.28,1.54,0.85,2.06c0.57,0.51,1.36,0.96,2.38,1.33c0.76,0.28,1.29,0.53,1.6,0.75
			s0.46,0.52,0.46,0.88c0,0.34-0.13,0.61-0.38,0.79c-0.25,0.18-0.57,0.27-0.96,0.27c-0.59,0-1.04-0.16-1.34-0.47
			c-0.31-0.32-0.46-0.75-0.46-1.31h-2.49c0,1.18,0.37,2.13,1.12,2.86c0.75,0.73,1.78,1.09,3.08,1.09c1.21,0,2.18-0.28,2.92-0.83
			c0.73-0.55,1.1-1.35,1.1-2.39c0-0.94-0.29-1.68-0.86-2.2C114.48,67.46,113.6,66.96,112.41,66.48z M121.21,64.34h3.02v8.9h2.54
			v-8.9h3.04v-2.35h-8.59V64.34z M135.79,73.24h2.67V61.99h-2.67V73.24z M151.49,70.6c-0.39,0.27-0.86,0.4-1.41,0.4
			c-0.86,0-1.53-0.3-2.03-0.9c-0.5-0.6-0.75-1.41-0.75-2.44c0-1.01,0.24-1.83,0.71-2.47c0.47-0.64,1.11-0.96,1.93-0.96
			c1.13,0,1.85,0.49,2.14,1.46h2.7c-0.13-0.89-0.44-1.63-0.93-2.22c-0.49-0.59-1.07-1.02-1.73-1.27c-0.66-0.25-1.4-0.38-2.2-0.38
			c-1.61,0-2.9,0.54-3.88,1.61c-0.98,1.08-1.47,2.47-1.47,4.17c0,1.72,0.49,3.12,1.48,4.18c0.99,1.07,2.34,1.6,4.06,1.6
			c1.26,0,2.34-0.34,3.24-1.01c0.89-0.67,1.45-1.63,1.66-2.86h-2.68C152.14,69.98,151.87,70.34,151.49,70.6z M167.89,67.99
			c-0.57-0.52-1.45-1.03-2.64-1.51c-0.69-0.28-1.16-0.53-1.43-0.75c-0.27-0.22-0.4-0.48-0.4-0.78c0-0.3,0.11-0.54,0.33-0.71
			c0.22-0.17,0.51-0.26,0.86-0.26c0.46,0,0.82,0.12,1.08,0.37c0.26,0.25,0.41,0.57,0.44,0.96h2.33c0-0.99-0.35-1.81-1.04-2.48
			c-0.7-0.67-1.64-1-2.83-1c-1.08,0-1.97,0.29-2.67,0.88c-0.7,0.59-1.05,1.4-1.05,2.43c0,0.86,0.28,1.54,0.85,2.06
			c0.57,0.51,1.36,0.96,2.38,1.33c0.76,0.28,1.29,0.53,1.6,0.75s0.46,0.52,0.46,0.88c0,0.34-0.13,0.61-0.38,0.79
			c-0.25,0.18-0.57,0.27-0.96,0.27c-0.59,0-1.04-0.16-1.34-0.47c-0.31-0.32-0.46-0.75-0.46-1.31h-2.49c0,1.18,0.37,2.13,1.12,2.86
			c0.75,0.73,1.78,1.09,3.08,1.09c1.21,0,2.18-0.28,2.92-0.83c0.73-0.55,1.1-1.35,1.1-2.39C168.75,69.24,168.47,68.51,167.89,67.99z
			"/>
	</g>
</g>
</svg>
