<?xml version="1.0" encoding="utf-8"?>
<!-- Generator: Adobe Illustrator 24.2.3, SVG Export Plug-In . SVG Version: 6.00 Build 0)  -->
<svg version="1.1" id="Layer_1" xmlns="http://www.w3.org/2000/svg" xmlns:xlink="http://www.w3.org/1999/xlink" x="0px" y="0px"
	 viewBox="0 0 85 85" style="enable-background:new 0 0 85 85;" xml:space="preserve">
<style type="text/css">
	.st0{fill:#A17DE9;}
</style>
<g>
	<g>
		<path class="st0" d="M42.88,22.45c-1.55,0-2.8-1.25-2.8-2.8v-7.39c0-1.55,1.25-2.8,2.8-2.8s2.8,1.25,2.8,2.8v7.39
			C45.68,21.2,44.42,22.45,42.88,22.45z"/>
	</g>
	<g>
		<path class="st0" d="M42.88,15.06c-3.09,0-5.6-2.51-5.6-5.6c0-3.09,2.51-5.6,5.6-5.6s5.6,2.51,5.6,5.6
			C48.47,12.56,45.97,15.06,42.88,15.06z M42.88,6.67v2.8c0,0,0,0,0.01,0L42.88,6.67z"/>
	</g>
	<g>
		<path class="st0" d="M42.88,74.83c-1.55,0-2.8-1.25-2.8-2.8v-7.39c0-1.55,1.25-2.8,2.8-2.8s2.8,1.25,2.8,2.8v7.39
			C45.68,73.58,44.42,74.83,42.88,74.83z"/>
	</g>
	<g>
		<path class="st0" d="M42.88,80.43c-3.09,0-5.6-2.51-5.6-5.6c0-3.09,2.51-5.6,5.6-5.6s5.6,2.51,5.6,5.6
			C48.47,77.92,45.97,80.43,42.88,80.43z M42.88,74.83L42.88,74.83l-0.01,2.8L42.88,74.83z"/>
	</g>
	<g>
		<path class="st0" d="M20.39,44.95h-7.4c-1.55,0-2.8-1.25-2.8-2.8c0-1.55,1.25-2.8,2.8-2.8h7.4c1.55,0,2.8,1.25,2.8,2.8
			C23.19,43.7,21.94,44.95,20.39,44.95z"/>
	</g>
	<g>
		<path class="st0" d="M10.19,47.75c-3.09,0-5.6-2.51-5.6-5.6c0-3.09,2.51-5.6,5.6-5.6c3.09,0,5.6,2.51,5.6,5.6
			C15.79,45.24,13.28,47.75,10.19,47.75z M10.19,42.14l-2.8,0.01l2.8,0.01C10.19,42.15,10.19,42.15,10.19,42.14z"/>
	</g>
	<g>
		<path class="st0" d="M72.76,44.95h-7.39c-1.55,0-2.8-1.25-2.8-2.8c0-1.55,1.25-2.8,2.8-2.8h7.39c1.55,0,2.8,1.25,2.8,2.8
			C75.56,43.7,74.31,44.95,72.76,44.95z"/>
	</g>
	<g>
		<path class="st0" d="M75.56,47.75c-3.09,0-5.6-2.51-5.6-5.6c0-3.09,2.51-5.6,5.6-5.6c3.09,0,5.6,2.51,5.6,5.6
			C81.16,45.24,78.65,47.75,75.56,47.75z M75.56,42.14L75.56,42.14l2.8,0.01L75.56,42.14z"/>
	</g>
	<g>
		<path class="st0" d="M21.75,66.08c-0.72,0-1.43-0.27-1.98-0.82c-1.09-1.09-1.09-2.86,0-3.96L25,56.08c1.09-1.09,2.86-1.09,3.96,0
			s1.09,2.86,0,3.96l-5.23,5.23C23.18,65.81,22.47,66.08,21.75,66.08z"/>
	</g>
	<g>
		<path class="st0" d="M19.77,70.86c-1.43,0-2.86-0.55-3.96-1.64l-0.01-0.01c-2.17-2.18-2.17-5.72,0-7.9
			c2.19-2.18,5.74-2.19,7.93-0.01c2.18,2.18,2.18,5.73,0,7.92C22.64,70.31,21.2,70.86,19.77,70.86z"/>
	</g>
	<g>
		<path class="st0" d="M58.78,29.04c-0.72,0-1.43-0.27-1.98-0.82c-1.09-1.09-1.09-2.86,0-3.96l5.23-5.23c1.09-1.09,2.86-1.09,3.96,0
			c1.09,1.09,1.09,2.86,0,3.96l-5.23,5.23C60.22,28.77,59.5,29.04,58.78,29.04z"/>
	</g>
	<g>
		<path class="st0" d="M65.99,24.63c-1.43,0-2.86-0.54-3.96-1.63c-2.18-2.18-2.18-5.73,0-7.92c2.19-2.19,5.73-2.19,7.91,0
			c2.18,2.18,2.18,5.73,0,7.92C68.85,24.09,67.42,24.63,65.99,24.63z M67.97,17.06l-1.98,1.98c0.01,0,0.01,0,0.01,0L67.97,17.06z"/>
	</g>
	<g>
		<path class="st0" d="M64.01,66.08c-0.72,0-1.43-0.27-1.98-0.82l-5.23-5.23c-1.09-1.09-1.09-2.86,0-3.96s2.86-1.09,3.96,0
			l5.23,5.23c1.09,1.09,1.09,2.86,0,3.96C65.44,65.81,64.72,66.08,64.01,66.08z"/>
	</g>
	<g>
		<path class="st0" d="M65.99,70.85c-1.43,0-2.86-0.54-3.96-1.63c-2.18-2.18-2.18-5.73,0-7.92c2.19-2.19,5.73-2.19,7.91,0
			c2.18,2.18,2.18,5.73,0,7.92C68.85,70.31,67.42,70.85,65.99,70.85z M65.99,65.25C65.99,65.26,65.99,65.26,65.99,65.25l1.98,1.98
			L65.99,65.25z"/>
	</g>
	<g>
		<path class="st0" d="M26.98,29.04c-0.72,0-1.43-0.27-1.98-0.82L19.77,23c-1.09-1.09-1.09-2.86,0-3.96c1.09-1.09,2.86-1.09,3.96,0
			l5.23,5.23c1.09,1.09,1.09,2.86,0,3.96C28.41,28.77,27.69,29.04,26.98,29.04z"/>
	</g>
	<g>
		<path class="st0" d="M19.77,24.64c-1.43,0-2.86-0.55-3.96-1.64c-2.18-2.19-2.18-5.73-0.01-7.91l0.01-0.01
			c2.19-2.19,5.74-2.19,7.92,0c2.18,2.18,2.18,5.73,0,7.92C22.64,24.09,21.2,24.64,19.77,24.64z M19.77,19.04h0.05H19.77z"/>
	</g>
	<g>
		<path class="st0" d="M43.34,59.72c-0.33,0-0.66-0.06-0.98-0.18l-15.9-5.96c-1.09-0.4-1.81-1.45-1.81-2.62V33.09
			c0-0.92,0.45-1.78,1.2-2.3c0.76-0.52,1.72-0.64,2.58-0.32l15.9,5.96c1.09,0.4,1.81,1.45,1.81,2.62v17.88c0,0.92-0.45,1.78-1.2,2.3
			C44.46,59.55,43.9,59.72,43.34,59.72z M30.24,49.03l10.3,3.86v-11.9l-10.3-3.86V49.03z"/>
	</g>
	<g>
		<path class="st0" d="M43.34,59.72c-0.55,0-1.09-0.16-1.56-0.48c-0.77-0.52-1.24-1.39-1.24-2.32V39.04c0-1.17,0.73-2.22,1.83-2.62
			l14.98-5.54c0.86-0.33,1.82-0.2,2.57,0.33c0.75,0.52,1.2,1.38,1.2,2.3v17.32c0,1.14-0.69,2.16-1.74,2.59l-14.98,6.11
			C44.05,59.66,43.69,59.72,43.34,59.72z M46.13,41v11.76l9.39-3.82V37.52L46.13,41z M58.32,50.82h0.05H58.32z"/>
	</g>
	<g>
		<path class="st0" d="M43.34,41.84c-0.33,0-0.67-0.06-0.98-0.18l-15.9-5.96c-1.09-0.41-1.81-1.45-1.81-2.62
			c0-1.17,0.73-2.21,1.83-2.62l14.98-5.55c0.64-0.23,1.32-0.23,1.96,0.01l15.9,5.96c1.09,0.41,1.81,1.45,1.81,2.62
			s-0.73,2.21-1.83,2.62l-14.98,5.54C43.99,41.78,43.66,41.84,43.34,41.84z M35.46,33.1l7.88,2.96l6.96-2.57l-7.88-2.96L35.46,33.1z
			"/>
	</g>
</g>
</svg>
