<?xml version="1.0" encoding="utf-8"?>
<!-- Generator: Adobe Illustrator 24.2.3, SVG Export Plug-In . SVG Version: 6.00 Build 0)  -->
<svg version="1.1" id="Layer_1" xmlns="http://www.w3.org/2000/svg" xmlns:xlink="http://www.w3.org/1999/xlink" x="0px" y="0px"
	 viewBox="0 0 85 85" style="enable-background:new 0 0 85 85;" xml:space="preserve">
<style type="text/css">
	.st0{fill:#5E3AA6;}
	.st1{fill:url(#SVGID_1_);}
	.st2{fill:url(#SVGID_2_);}
	.st3{fill:url(#SVGID_3_);}
	.st4{fill:url(#SVGID_4_);}
	.st5{fill:url(#SVGID_5_);}
	.st6{fill:url(#SVGID_6_);}
	.st7{fill:url(#SVGID_7_);}
	.st8{fill:url(#SVGID_8_);}
</style>
<rect x="51.09" y="58.61" transform="matrix(-1 -1.224647e-16 1.224647e-16 -1 110.2635 133.3853)" class="st0" width="8.09" height="16.17"/>
<polygon class="st0" points="83.43,50.52 75.35,50.52 75.35,26.26 83.43,34.35 "/>
<polygon class="st0" points="51.09,58.61 51.09,50.52 83.43,50.52 75.35,58.61 "/>
<polygon class="st0" points="34.92,82.87 34.92,74.78 59.18,74.78 51.09,82.87 "/>
<polygon class="st0" points="26.83,10.09 34.92,2 51.09,2 51.09,10.09 "/>
<rect x="59.18" y="26.26" class="st0" width="16.17" height="8.09"/>
<rect x="10.66" y="50.52" class="st0" width="16.17" height="8.09"/>
<polygon class="st0" points="2.57,34.35 10.66,26.26 26.83,26.26 26.83,34.35 "/>
<polygon class="st0" points="34.92,82.87 26.83,74.78 26.83,50.52 34.92,50.52 "/>
<rect x="26.83" y="10.09" class="st0" width="8.09" height="24.26"/>
<linearGradient id="SVGID_1_" gradientUnits="userSpaceOnUse" x1="101.175" y1="252.3031" x2="117.3483" y2="252.3031" gradientTransform="matrix(1 0 0 1 -42 -221.9999)">
	<stop  offset="0" style="stop-color:#2F1D57;stop-opacity:0"/>
	<stop  offset="1" style="stop-color:#2F1D57;stop-opacity:0.5"/>
</linearGradient>
<rect x="59.18" y="26.26" class="st1" width="16.17" height="8.09"/>
<linearGradient id="SVGID_2_" gradientUnits="userSpaceOnUse" x1="509.1714" y1="197.437" x2="525.3446" y2="197.437" gradientTransform="matrix(-1 0 0 -1 536 252)">
	<stop  offset="0" style="stop-color:#2F1D57;stop-opacity:0"/>
	<stop  offset="1" style="stop-color:#2F1D57;stop-opacity:0.5"/>
</linearGradient>
<polygon class="st2" points="10.66,50.52 26.83,50.52 26.83,58.61 10.66,58.61 "/>
<linearGradient id="SVGID_3_" gradientUnits="userSpaceOnUse" x1="700.9116" y1="533.1772" x2="717.0848" y2="533.1772" gradientTransform="matrix(-1 0 0 -1 752 611.9999)">
	<stop  offset="0" style="stop-color:#2F1D57;stop-opacity:0"/>
	<stop  offset="1" style="stop-color:#2F1D57;stop-opacity:0.5"/>
</linearGradient>
<polygon class="st3" points="34.92,74.78 51.09,74.78 51.09,82.87 34.92,82.87 "/>
<linearGradient id="SVGID_4_" gradientUnits="userSpaceOnUse" x1="-151.0848" y1="144.0433" x2="-134.9116" y2="144.0433" gradientTransform="matrix(1 0 0 1 186 -138)">
	<stop  offset="0" style="stop-color:#2F1D57;stop-opacity:0"/>
	<stop  offset="1" style="stop-color:#2F1D57;stop-opacity:0.5"/>
</linearGradient>
<rect x="34.92" y="2" class="st4" width="16.17" height="8.09"/>
<linearGradient id="SVGID_5_" gradientUnits="userSpaceOnUse" x1="517.7402" y1="-51.1281" x2="533.9134" y2="-51.1281" gradientTransform="matrix(0 -1 1 0 82 544)">
	<stop  offset="0" style="stop-color:#2F1D57;stop-opacity:0"/>
	<stop  offset="1" style="stop-color:#2F1D57;stop-opacity:0.5"/>
</linearGradient>
<polygon class="st5" points="34.92,10.09 34.92,26.26 26.83,26.26 26.83,10.09 "/>
<linearGradient id="SVGID_6_" gradientUnits="userSpaceOnUse" x1="-7128.3916" y1="6666.8672" x2="-7112.2183" y2="6666.8672" gradientTransform="matrix(0 1 -1 0 6721.999 7186.9976)">
	<stop  offset="0" style="stop-color:#2F1D57;stop-opacity:0"/>
	<stop  offset="1" style="stop-color:#2F1D57;stop-opacity:0.5"/>
</linearGradient>
<polygon class="st6" points="51.09,74.78 51.09,58.61 59.18,58.61 59.18,74.78 "/>
<polygon class="st0" points="59.18,34.35 51.09,34.35 51.09,2 59.18,10.09 "/>
<polygon class="st0" points="10.66,58.61 2.57,50.52 2.57,34.35 10.66,34.35 "/>
<linearGradient id="SVGID_7_" gradientUnits="userSpaceOnUse" x1="493.4803" y1="-75.3879" x2="509.6536" y2="-75.3879" gradientTransform="matrix(0 -1 1 0 82 544)">
	<stop  offset="0" style="stop-color:#2F1D57;stop-opacity:0"/>
	<stop  offset="1" style="stop-color:#2F1D57;stop-opacity:0.5"/>
</linearGradient>
<polygon class="st7" points="10.66,34.35 10.66,50.52 2.57,50.52 2.57,34.35 "/>
<linearGradient id="SVGID_8_" gradientUnits="userSpaceOnUse" x1="200.3465" y1="512.6085" x2="216.5197" y2="512.6085" gradientTransform="matrix(0 1 -1 0 592 -166)">
	<stop  offset="0" style="stop-color:#2F1D57;stop-opacity:0"/>
	<stop  offset="1" style="stop-color:#2F1D57;stop-opacity:0.5"/>
</linearGradient>
<polygon class="st8" points="75.35,50.52 75.35,34.35 83.43,34.35 83.43,50.52 "/>
</svg>
