<?xml version="1.0" encoding="utf-8"?>
<!-- Generator: Adobe Illustrator 24.2.3, SVG Export Plug-In . SVG Version: 6.00 Build 0)  -->
<svg version="1.1" id="Layer_1" xmlns="http://www.w3.org/2000/svg" xmlns:xlink="http://www.w3.org/1999/xlink" x="0px" y="0px"
	 viewBox="0 0 85 85" style="enable-background:new 0 0 85 85;" xml:space="preserve">
<style type="text/css">
	.st0{fill:#5E3AA6;}
	.st1{fill:url(#SVGID_1_);}
	.st2{fill:url(#SVGID_2_);}
	.st3{fill:url(#SVGID_3_);}
	.st4{fill:url(#SVGID_4_);}
	.st5{fill:url(#SVGID_5_);}
	.st6{fill:url(#SVGID_6_);}
	.st7{fill:url(#SVGID_7_);}
	.st8{fill:url(#SVGID_8_);}
</style>
<polygon class="st0" points="17.7,72.51 17.7,65.89 69,65.89 63.53,72.51 "/>
<rect x="40.04" y="1.35" class="st0" width="6.62" height="81.09"/>
<rect x="17.7" y="16.24" class="st0" width="6.62" height="21.51"/>
<polygon class="st0" points="69,9.62 69,16.24 17.7,16.24 23.17,9.62 "/>
<rect x="62.38" y="44.37" transform="matrix(-1 -1.224647e-16 1.224647e-16 -1 131.3808 110.2604)" class="st0" width="6.62" height="21.51"/>
<polygon class="st0" points="69,44.37 62.38,37.75 17.7,37.75 24.32,44.37 "/>
<linearGradient id="SVGID_1_" gradientUnits="userSpaceOnUse" x1="51.0105" y1="83.4807" x2="51.0105" y2="70.2422" gradientTransform="matrix(1 0 0 1 -30 -54)">
	<stop  offset="0" style="stop-color:#2F1D57;stop-opacity:0"/>
	<stop  offset="1" style="stop-color:#2F1D57;stop-opacity:0.5"/>
</linearGradient>
<rect x="17.7" y="16.24" class="st1" width="6.62" height="13.24"/>
<linearGradient id="SVGID_2_" gradientUnits="userSpaceOnUse" x1="73.3505" y1="111.6124" x2="73.3505" y2="98.374" gradientTransform="matrix(1 0 0 1 -30 -54)">
	<stop  offset="0" style="stop-color:#2F1D57;stop-opacity:0"/>
	<stop  offset="1" style="stop-color:#2F1D57;stop-opacity:0.5"/>
</linearGradient>
<rect x="40.04" y="44.37" class="st2" width="6.62" height="13.24"/>
<linearGradient id="SVGID_3_" gradientUnits="userSpaceOnUse" x1="95.6904" y1="111.6124" x2="95.6904" y2="98.374" gradientTransform="matrix(1 0 0 1 -30 -54)">
	<stop  offset="0" style="stop-color:#2F1D57;stop-opacity:0"/>
	<stop  offset="1" style="stop-color:#2F1D57;stop-opacity:0.5"/>
</linearGradient>
<rect x="62.38" y="44.37" class="st3" width="6.62" height="13.24"/>
<linearGradient id="SVGID_4_" gradientUnits="userSpaceOnUse" x1="4334.9355" y1="-1228.4414" x2="4334.9355" y2="-1241.6798" gradientTransform="matrix(0 -1 1 0 1266 4376)">
	<stop  offset="0" style="stop-color:#2F1D57;stop-opacity:0"/>
	<stop  offset="1" style="stop-color:#2F1D57;stop-opacity:0.5"/>
</linearGradient>
<rect x="24.32" y="37.75" class="st4" width="13.24" height="6.62"/>
<linearGradient id="SVGID_5_" gradientUnits="userSpaceOnUse" x1="185.0672" y1="9429.1973" x2="185.0672" y2="9415.959" gradientTransform="matrix(4.489700e-11 -1 -1 -4.489700e-11 9456 198)">
	<stop  offset="0" style="stop-color:#2F1D57;stop-opacity:0"/>
	<stop  offset="1" style="stop-color:#2F1D57;stop-opacity:0.5"/>
</linearGradient>
<rect x="26.8" y="9.62" class="st5" width="13.24" height="6.62"/>
<linearGradient id="SVGID_6_" gradientUnits="userSpaceOnUse" x1="1930.9325" y1="15981.8984" x2="1930.9325" y2="15968.6602" gradientTransform="matrix(-4.489700e-11 1 1 4.489700e-11 -15922 -1917.9999)">
	<stop  offset="0" style="stop-color:#2F1D57;stop-opacity:0"/>
	<stop  offset="1" style="stop-color:#2F1D57;stop-opacity:0.5"/>
</linearGradient>
<rect x="46.66" y="9.62" class="st6" width="13.24" height="6.62"/>
<linearGradient id="SVGID_7_" gradientUnits="userSpaceOnUse" x1="507.1961" y1="244.8577" x2="507.1961" y2="231.6192" gradientTransform="matrix(0 1 -1 0 294 -438)">
	<stop  offset="0" style="stop-color:#2F1D57;stop-opacity:0"/>
	<stop  offset="1" style="stop-color:#2F1D57;stop-opacity:0.5"/>
</linearGradient>
<rect x="49.14" y="65.89" class="st7" width="13.24" height="6.62"/>
<linearGradient id="SVGID_8_" gradientUnits="userSpaceOnUse" x1="507.1961" y1="267.1976" x2="507.1961" y2="253.9592" gradientTransform="matrix(0 1 -1 0 294 -438)">
	<stop  offset="0" style="stop-color:#2F1D57;stop-opacity:0"/>
	<stop  offset="1" style="stop-color:#2F1D57;stop-opacity:0.5"/>
</linearGradient>
<rect x="26.8" y="65.89" class="st8" width="13.24" height="6.62"/>
</svg>
