<?xml version="1.0" encoding="utf-8"?>
<!-- Generator: Adobe Illustrator 24.2.3, SVG Export Plug-In . SVG Version: 6.00 Build 0)  -->
<svg version="1.1" id="Layer_1" xmlns="http://www.w3.org/2000/svg" xmlns:xlink="http://www.w3.org/1999/xlink" x="0px" y="0px"
	 viewBox="0 0 85 85" style="enable-background:new 0 0 85 85;" xml:space="preserve">
<style type="text/css">
	.st0{fill:#5E3AA6;}
	.st1{fill:url(#SVGID_1_);}
	.st2{fill:url(#SVGID_2_);}
	.st3{fill:url(#SVGID_3_);}
	.st4{fill:url(#SVGID_4_);}
	.st5{fill:url(#SVGID_5_);}
	.st6{fill:url(#SVGID_6_);}
</style>
<g>
	<rect x="30.34" y="70.37" class="st0" width="5.53" height="10.37"/>
	<rect x="46.94" y="53.78" class="st0" width="5.53" height="26.96"/>
	<rect x="63.53" y="37.18" class="st0" width="5.53" height="43.55"/>
	<polygon class="st0" points="19.28,80.74 13.75,80.74 13.75,59.31 19.28,53.78 	"/>
	<polygon class="st0" points="69.06,20.59 63.53,26.12 63.53,9.53 69.06,4 	"/>
	<rect x="52.47" y="20.59" class="st0" width="11.06" height="5.53"/>
	<polygon class="st0" points="52.47,37.18 46.94,42.71 46.94,26.12 52.47,20.59 	"/>
	
		<linearGradient id="SVGID_1_" gradientUnits="userSpaceOnUse" x1="-1600.2986" y1="-2208.8162" x2="-1600.2986" y2="-2219.8774" gradientTransform="matrix(1 0 0 1 1650 2246)">
		<stop  offset="0" style="stop-color:#2F1D57;stop-opacity:0"/>
		<stop  offset="1" style="stop-color:#2F1D57;stop-opacity:0.5"/>
	</linearGradient>
	<rect x="46.94" y="26.12" class="st1" width="5.53" height="11.06"/>
	
		<linearGradient id="SVGID_2_" gradientUnits="userSpaceOnUse" x1="347.3573" y1="2233.5332" x2="347.3573" y2="2222.4719" gradientTransform="matrix(0 1 -1 0 2286 -324)">
		<stop  offset="0" style="stop-color:#2F1D57;stop-opacity:0"/>
		<stop  offset="1" style="stop-color:#2F1D57;stop-opacity:0.5"/>
	</linearGradient>
	<rect x="52.47" y="20.59" class="st2" width="11.06" height="5.53"/>
	<rect x="35.87" y="37.18" class="st0" width="11.06" height="5.53"/>
	<polygon class="st0" points="35.87,53.78 30.34,59.31 30.34,42.71 35.87,37.18 	"/>
	
		<linearGradient id="SVGID_3_" gradientUnits="userSpaceOnUse" x1="-1616.8905" y1="-2192.2241" x2="-1616.8905" y2="-2203.2854" gradientTransform="matrix(1 0 0 1 1650 2246)">
		<stop  offset="0" style="stop-color:#2F1D57;stop-opacity:0"/>
		<stop  offset="1" style="stop-color:#2F1D57;stop-opacity:0.5"/>
	</linearGradient>
	<rect x="30.34" y="42.71" class="st3" width="5.53" height="11.06"/>
	
		<linearGradient id="SVGID_4_" gradientUnits="userSpaceOnUse" x1="-1633.4824" y1="-2175.6323" x2="-1633.4824" y2="-2186.6936" gradientTransform="matrix(1 0 0 1 1650 2246)">
		<stop  offset="0" style="stop-color:#2F1D57;stop-opacity:0"/>
		<stop  offset="1" style="stop-color:#2F1D57;stop-opacity:0.5"/>
	</linearGradient>
	<rect x="13.75" y="59.31" class="st4" width="5.53" height="11.06"/>
	
		<linearGradient id="SVGID_5_" gradientUnits="userSpaceOnUse" x1="363.9492" y1="2250.1252" x2="363.9492" y2="2239.064" gradientTransform="matrix(0 1 -1 0 2286 -324)">
		<stop  offset="0" style="stop-color:#2F1D57;stop-opacity:0"/>
		<stop  offset="1" style="stop-color:#2F1D57;stop-opacity:0.5"/>
	</linearGradient>
	<rect x="35.87" y="37.18" class="st5" width="11.06" height="5.53"/>
	<rect x="19.28" y="53.78" class="st0" width="11.06" height="5.53"/>
	
		<linearGradient id="SVGID_6_" gradientUnits="userSpaceOnUse" x1="380.5411" y1="2266.717" x2="380.5411" y2="2255.6558" gradientTransform="matrix(0 1 -1 0 2286 -324)">
		<stop  offset="0" style="stop-color:#2F1D57;stop-opacity:0"/>
		<stop  offset="1" style="stop-color:#2F1D57;stop-opacity:0.5"/>
	</linearGradient>
	<rect x="19.28" y="53.78" class="st6" width="11.06" height="5.53"/>
</g>
</svg>
