<?xml version="1.0" encoding="utf-8"?>
<!-- Generator: Adobe Illustrator 24.2.3, SVG Export Plug-In . SVG Version: 6.00 Build 0)  -->
<svg version="1.1" id="Layer_1" xmlns="http://www.w3.org/2000/svg" xmlns:xlink="http://www.w3.org/1999/xlink" x="0px" y="0px"
	 viewBox="0 0 85 85" style="enable-background:new 0 0 85 85;" xml:space="preserve">
<style type="text/css">
	.st0{fill:#5E3AA6;}
	.st1{fill:url(#SVGID_1_);}
	.st2{fill:url(#SVGID_2_);}
	.st3{fill:url(#SVGID_3_);}
</style>
<g>
	<polygon class="st0" points="15.31,27.16 15.31,57.09 27.79,69.7 27.79,57.09 27.79,27.04 15.43,27.04 	"/>
	<linearGradient id="SVGID_1_" gradientUnits="userSpaceOnUse" x1="21.5502" y1="62.6673" x2="21.5502" y2="-0.2217">
		<stop  offset="0" style="stop-color:#2F1D57;stop-opacity:0"/>
		<stop  offset="1" style="stop-color:#2F1D57;stop-opacity:0.5"/>
	</linearGradient>
	<polygon class="st1" points="15.31,27.16 15.31,57.09 27.79,69.7 27.79,57.09 27.79,27.04 15.43,27.04 	"/>
	<polygon class="st0" points="70.44,69.7 57.72,57.09 27.79,57.09 27.79,69.7 	"/>
	<linearGradient id="SVGID_2_" gradientUnits="userSpaceOnUse" x1="83.6849" y1="65.0906" x2="-33.6138" y2="57.5776">
		<stop  offset="0" style="stop-color:#2F1D57;stop-opacity:0"/>
		<stop  offset="1" style="stop-color:#2F1D57;stop-opacity:0.5"/>
	</linearGradient>
	<polygon class="st2" points="70.44,68.77 57.72,56.17 27.79,56.17 27.79,68.77 	"/>
	<polygon class="st0" points="27.79,14.56 15.43,27.04 57.96,27.04 57.96,14.56 	"/>
	<linearGradient id="SVGID_3_" gradientUnits="userSpaceOnUse" x1="15.43" y1="20.8018" x2="57.9629" y2="20.8018">
		<stop  offset="0" style="stop-color:#2F1D57;stop-opacity:0"/>
		<stop  offset="1" style="stop-color:#2F1D57;stop-opacity:0.5"/>
	</linearGradient>
	<polygon class="st3" points="27.79,14.56 15.43,27.04 57.96,27.04 57.96,14.56 	"/>
	<polygon class="st0" points="70.44,2 57.96,2 57.96,27.04 70.44,14.44 	"/>
	<rect x="57.84" y="69.7" class="st0" width="12.6" height="12.6"/>
</g>
</svg>
