<?xml version="1.0" encoding="utf-8"?>
<!-- Generator: Adobe Illustrator 24.2.3, SVG Export Plug-In . SVG Version: 6.00 Build 0)  -->
<svg version="1.1" id="Layer_1" xmlns="http://www.w3.org/2000/svg" xmlns:xlink="http://www.w3.org/1999/xlink" x="0px" y="0px"
	 viewBox="0 0 30 30" style="enable-background:new 0 0 30 30;" xml:space="preserve">
<style type="text/css">
	.st0{fill:#2F1D57;}
</style>
<g>
	<polygon class="st0" points="1.09,3.01 1.09,3.01 1.09,3.01 	"/>
	<path class="st0" d="M26.86,1H3.14C2.01,1,1.09,1.9,1.09,3.01v23.99C1.09,28.1,2.01,29,3.14,29h23.71c1.14,0,2.06-0.9,2.06-2.01
		V3.01C28.91,1.9,27.99,1,26.86,1z M5.32,24.44V11.8h4.2v12.64H5.32z M7.42,10.07L7.42,10.07H7.39c-1.41,0-2.32-0.97-2.32-2.18
		c0-1.24,0.94-2.18,2.38-2.18c1.44,0,2.32,0.94,2.35,2.18C9.8,9.1,8.89,10.07,7.42,10.07z M24.68,24.44h-4.2v-6.76
		c0-1.7-0.61-2.86-2.13-2.86c-1.16,0-1.85,0.78-2.16,1.54c-0.11,0.27-0.14,0.65-0.14,1.03v7.06h-4.2l0,0c0,0,0.06-11.46,0-12.64h4.2
		v1.79c0.56-0.86,1.56-2.09,3.79-2.09c2.76,0,4.84,1.81,4.84,5.69V24.44z"/>
</g>
</svg>
