<svg id="Icons" xmlns="http://www.w3.org/2000/svg" viewBox="0 0 61.69 61.29"><defs><style>.cls-1,.cls-2,.cls-3{fill:none;stroke:#a17de9;stroke-width:2px;}.cls-1,.cls-3{stroke-linecap:round;}.cls-1{stroke-miterlimit:10;}.cls-2,.cls-3{stroke-linejoin:round;}</style></defs><line class="cls-1" x1="29.82" y1="1" x2="29.82" y2="4.57"/><line class="cls-1" x1="15.89" y1="5.54" x2="18.41" y2="8.06"/><line class="cls-1" x1="43.76" y1="5.54" x2="41.24" y2="8.06"/><line class="cls-2" x1="1.44" y1="60.29" x2="60.2" y2="60.29"/><polygon class="cls-2" points="51.98 40.25 9.67 40.25 9.67 36.95 13.2 32.47 48.53 32.47 51.98 36.99 51.98 40.25"/><line class="cls-3" x1="27.85" y1="50.53" x2="28.18" y2="50.53"/><line class="cls-2" x1="24.46" y1="40.25" x2="24.46" y2="60.29"/><line class="cls-2" x1="37.18" y1="40.25" x2="37.18" y2="60.29"/><line class="cls-2" x1="4.34" y1="34.24" x2="4.34" y2="60.29"/><line class="cls-2" x1="57.24" y1="34.24" x2="57.24" y2="60.29"/><path class="cls-2" d="M20.81,21.14H6a.72.72,0,0,0-.69.48L1.05,33.25a.73.73,0,0,0,.41,1,.81.81,0,0,0,.27,0H7.34" transform="translate(0)"/><path class="cls-2" d="M54.31,34.24H60a.74.74,0,0,0,.73-.75.7.7,0,0,0,0-.25L56.31,21.62a.71.71,0,0,0-.68-.48H39.74" transform="translate(0)"/><line class="cls-2" x1="11.74" y1="40.25" x2="11.74" y2="60.29"/><line class="cls-2" x1="49.9" y1="40.25" x2="49.9" y2="60.29"/><path class="cls-3" d="M24.08,22.78V9.38H30a3.35,3.35,0,0,1,0,6.69H28.7L38.52,28" transform="translate(0)"/><line class="cls-3" x1="38.52" y1="16.08" x2="28.7" y2="27.99"/></svg>