<?xml version="1.0" encoding="utf-8"?>
<!-- Generator: Adobe Illustrator 25.2.1, SVG Export Plug-In . SVG Version: 6.00 Build 0)  -->
<svg version="1.1" id="Layer_1" xmlns="http://www.w3.org/2000/svg" xmlns:xlink="http://www.w3.org/1999/xlink" x="0px" y="0px"
	 viewBox="0 0 45.5 45.5" style="enable-background:new 0 0 45.5 45.5;" xml:space="preserve">
<style type="text/css">
	.st0{fill:none;stroke:#5274B9;stroke-width:2;stroke-linecap:round;stroke-miterlimit:10;}
	.st1{fill:none;stroke:#5274B9;stroke-width:2;stroke-linejoin:round;stroke-miterlimit:10;}
	.st2{fill:none;stroke:#5274B9;stroke-width:2;stroke-linecap:round;stroke-linejoin:round;stroke-miterlimit:10;}
</style>
<g>
	<line class="st0" x1="22" y1="2.4" x2="22" y2="4.8"/>
	<line class="st0" x1="12.7" y1="5.4" x2="14.4" y2="7.1"/>
	<line class="st0" x1="31.2" y1="5.4" x2="29.6" y2="7.1"/>
	<line class="st1" x1="3.1" y1="41.8" x2="42.2" y2="41.8"/>
	<polygon class="st1" points="36.7,28.5 8.6,28.5 8.6,26.3 10.9,23.3 34.4,23.3 36.7,26.3 	"/>
	<line class="st2" x1="20.7" y1="35.3" x2="20.9" y2="35.3"/>
	<line class="st1" x1="18.4" y1="28.5" x2="18.4" y2="41.8"/>
	<line class="st1" x1="26.9" y1="28.5" x2="26.9" y2="41.8"/>
	<line class="st1" x1="5" y1="24.5" x2="5" y2="41.8"/>
	<line class="st1" x1="40.2" y1="24.5" x2="40.2" y2="41.8"/>
	<path class="st1" d="M16,15.8H6.2c-0.2,0-0.4,0.1-0.5,0.3l-2.8,7.7c-0.1,0.3,0.1,0.7,0.5,0.7H7"/>
	<path class="st1" d="M38.2,24.5H42c0.3,0,0.6-0.4,0.5-0.7l-2.8-7.7c-0.1-0.2-0.2-0.3-0.5-0.3H28.6"/>
	<line class="st1" x1="9.9" y1="28.5" x2="9.9" y2="41.8"/>
	<line class="st1" x1="35.3" y1="28.5" x2="35.3" y2="41.8"/>
	<path class="st2" d="M18.2,16.9V8h3.9c1.2,0,2.2,1,2.2,2.2c0,1.2-1,2.2-2.2,2.2h-0.8l6.5,7.9"/>
	<line class="st2" x1="27.8" y1="12.4" x2="21.2" y2="20.3"/>
</g>
</svg>
