<?xml version="1.0" encoding="utf-8"?>
<!-- Generator: Adobe Illustrator 24.2.3, SVG Export Plug-In . SVG Version: 6.00 Build 0)  -->
<svg version="1.1" id="Layer_1" xmlns="http://www.w3.org/2000/svg" xmlns:xlink="http://www.w3.org/1999/xlink" x="0px" y="0px"
	 viewBox="0 0 85 85" style="enable-background:new 0 0 85 85;" xml:space="preserve">
<style type="text/css">
	.st0{fill:#A17DE9;}
</style>
<g>
	<g>
		<g>
			<g>
				<g>
					<g>
						<path class="st0" d="M22.33,81.54c-0.91,0-1.65-0.74-1.65-1.65s0.74-1.65,1.65-1.65h4.23c0.18,0,0.36-0.06,0.5-0.17
							c1.04-0.81,3.46-3.46,3.46-10.47c0-0.45-0.36-0.81-0.81-0.81H9.37c-3.25,0-5.9-2.65-5.9-5.9v-50.5c0-3.25,2.65-5.9,5.9-5.9
							h65.25c3.25,0,5.9,2.65,5.9,5.9v50.5c0,3.25-2.65,5.9-5.9,5.9H54.29c-0.45,0-0.81,0.36-0.81,0.81c0,7.02,2.4,9.66,3.43,10.47
							c0.14,0.11,0.32,0.17,0.5,0.17h4.25c0.91,0,1.65,0.74,1.65,1.65s-0.74,1.65-1.65,1.65H22.33z M34.62,66.79
							c-0.45,0-0.81,0.36-0.81,0.81c0,3.79-0.63,6.98-1.88,9.47c-0.13,0.25-0.11,0.55,0.04,0.79c0.15,0.24,0.41,0.38,0.69,0.38
							h18.69c0.28,0,0.54-0.14,0.69-0.38c0.15-0.24,0.16-0.53,0.04-0.79c-1.25-2.5-1.88-5.68-1.88-9.47c0-0.45-0.36-0.81-0.81-0.81
							H34.62z M7.58,52.04c-0.45,0-0.81,0.36-0.81,0.81v8.04c0,1.41,1.19,2.6,2.6,2.6h65.25c1.43,0,2.6-1.17,2.6-2.6v-8.04
							c0-0.45-0.36-0.81-0.81-0.81H7.58z M9.37,7.79c-1.41,0-2.6,1.19-2.6,2.6v37.54c0,0.45,0.36,0.81,0.81,0.81h68.83
							c0.45,0,0.81-0.36,0.81-0.81V10.39c0-1.43-1.17-2.6-2.6-2.6H9.37z"/>
					</g>
				</g>
			</g>
		</g>
		<g>
			<g>
				<g>
					<g>
						<path class="st0" d="M51.83,42.21c-0.68,0-1.31-0.43-1.55-1.07l-4.35-11.6c-0.12-0.32-0.42-0.52-0.76-0.52
							c-0.02,0-0.04,0-0.07,0c-0.36,0.03-0.66,0.29-0.73,0.65l-0.77,3.85c-0.15,0.77-0.84,1.33-1.62,1.33h-7.37
							c-0.91,0-1.65-0.74-1.65-1.65c0-0.91,0.74-1.65,1.65-1.65h5.36c0.38,0,0.72-0.27,0.79-0.65l2.06-10.32
							c0.14-0.72,0.76-1.26,1.49-1.32c0.03,0,0.07,0,0.11,0c0.71,0,1.33,0.42,1.57,1.07l4.35,11.6c0.12,0.32,0.42,0.52,0.76,0.52
							c0.02,0,0.04,0,0.07,0c0.36-0.03,0.66-0.29,0.73-0.65l3.23-16.14c0.15-0.75,0.79-1.29,1.55-1.33c0.05,0,0.09,0,0.13,0
							c0.73,0,1.31,0.46,1.53,1.2l4.41,15.42c0.1,0.35,0.42,0.59,0.78,0.59h5.52c0.91,0,1.65,0.74,1.65,1.65
							c0,0.91-0.74,1.65-1.65,1.65h-7.37c-0.73,0-1.39-0.49-1.59-1.2l-2.13-7.46c-0.1-0.35-0.42-0.59-0.78-0.59
							c-0.01,0-0.02,0-0.03,0c-0.37,0.02-0.69,0.28-0.76,0.65l-2.93,14.64c-0.14,0.72-0.76,1.26-1.49,1.32
							C51.93,42.21,51.88,42.21,51.83,42.21z"/>
					</g>
				</g>
			</g>
		</g>
	</g>
	<g>
		<g>
			<g>
				<g>
					<path class="st0" d="M23.04,16.78h-8.08c-0.91,0-1.65,0.74-1.65,1.65c0,0.91,0.74,1.65,1.65,1.65h8.08
						c0.91,0,1.65-0.74,1.65-1.65C24.69,17.52,23.95,16.78,23.04,16.78z"/>
				</g>
			</g>
		</g>
		<g>
			<g>
				<g>
					<path class="st0" d="M23.04,26.61h-8.08c-0.91,0-1.65,0.74-1.65,1.65s0.74,1.65,1.65,1.65h8.08c0.91,0,1.65-0.74,1.65-1.65
						S23.95,26.61,23.04,26.61z"/>
				</g>
			</g>
		</g>
		<g>
			<g>
				<g>
					<path class="st0" d="M23.04,36.44h-8.08c-0.91,0-1.65,0.74-1.65,1.65s0.74,1.65,1.65,1.65h8.08c0.91,0,1.65-0.74,1.65-1.65
						S23.95,36.44,23.04,36.44z"/>
				</g>
			</g>
		</g>
	</g>
</g>
</svg>
