<?xml version="1.0" encoding="utf-8"?>
<!-- Generator: Adobe Illustrator 24.3.0, SVG Export Plug-In . SVG Version: 6.00 Build 0)  -->
<svg version="1.1" id="Layer_1" xmlns="http://www.w3.org/2000/svg" xmlns:xlink="http://www.w3.org/1999/xlink" x="0px" y="0px"
	 viewBox="0 0 69.1 60.2" style="enable-background:new 0 0 69.1 60.2;" xml:space="preserve">
<style type="text/css">
	.st0{clip-path:url(#SVGID_2_);fill:#B7C0DC;}
	.st1{clip-path:url(#SVGID_2_);fill:none;stroke:#5E3BA6;stroke-width:0.803;}
	.st2{clip-path:url(#SVGID_2_);}
	.st3{fill:#2E2057;}
	.st4{font-family:'FuturaLT-Bold';}
	.st5{font-size:13.6575px;}
	.st6{clip-path:url(#SVGID_2_);fill:none;stroke:#5E3BA6;stroke-width:0.603;stroke-linecap:square;stroke-miterlimit:10;}
</style>
<g>
	<defs>
		<rect id="SVGID_1_" y="0" width="69.1" height="60.2"/>
	</defs>
	<clipPath id="SVGID_2_">
		<use xlink:href="#SVGID_1_"  style="overflow:visible;"/>
	</clipPath>
	<path class="st0" d="M39.9,59.8c16,0,28.9-12.9,28.9-28.9S55.8,2,39.9,2S11,15,11,30.9S23.9,59.8,39.9,59.8"/>
	<path class="st1" d="M39.9,59.8c16,0,28.9-12.9,28.9-28.9S55.8,2,39.9,2S11,15,11,30.9S23.9,59.8,39.9,59.8z"/>
	<g class="st2">
		<text transform="matrix(1 0 0 1 0 10.926)" class="st3 st4 st5">5.</text>
	</g>
	<path class="st6" d="M33.7,37.3c0-3.1,1.5-4.6,1.5-4.6S33.7,34.2,33.7,37.3z"/>
	<path class="st6" d="M35.5,43.7h1.2v-3.6c0-1.5-1.2-2.8-2.8-2.8c-1.5,0-2.8,1.2-2.8,2.8v3.6h1.2h-1.2v-3.6c0-1.5,1.2-2.8,2.8-2.8
		c1.5,0,2.8,1.2,2.8,2.8v3.6H35.5z"/>
	<path class="st6" d="M45,26.6c0,2.8-3.7,5.1-5.1,5.1c-1.5,0-5.1-2.3-5.1-5.1v-4.3c0-2.8,2.3-5.1,5.1-5.1s5.1,2.3,5.1,5.1V26.6z
		 M48.6,41.8c0,1.1-0.9,1.9-1.9,1.9s-1.9-0.9-1.9-1.9s0.9-1.9,1.9-1.9S48.6,40.7,48.6,41.8z M45.4,32.7c0,0,1.5,2.3,1.3,7.2
		C46.9,35,45.4,32.7,45.4,32.7z"/>
	<path class="st6" d="M28.4,44.6v-5.8c0-3.4,2.8-6.2,6.2-6.2H37h-2.4c-3.4,0-6.2,2.8-6.2,6.2V44.6z M51.3,44.6v-5.8
		c0-3.4-2.8-6.2-6.2-6.2h-2.4h2.4c3.4,0,6.2,2.8,6.2,6.2V44.6z"/>
	<path class="st6" d="M45,22.3c-5.8,2.2-7.8-0.9-7.8-0.9S39.2,24.5,45,22.3z M37.2,30.6l0,3.1c0,0.1,0,0.1,0,0.2l1.5,3.4
		c0.4,1.1,1.9,1.1,2.3,0l1.5-3.5c0-0.1,0-0.1,0-0.2v-2.9v2.9c0,0.1,0,0.1,0,0.2L41,37.3c-0.4,1.1-1.9,1.1-2.3,0l-1.5-3.4
		c0-0.1,0-0.1,0-0.2L37.2,30.6z"/>
</g>
</svg>
