<?xml version="1.0" encoding="utf-8"?>
<!-- Generator: Adobe Illustrator 24.3.0, SVG Export Plug-In . SVG Version: 6.00 Build 0)  -->
<svg version="1.1" id="Layer_1" xmlns="http://www.w3.org/2000/svg" xmlns:xlink="http://www.w3.org/1999/xlink" x="0px" y="0px"
	 viewBox="0 0 66.6 60.2" style="enable-background:new 0 0 66.6 60.2;" xml:space="preserve">
<style type="text/css">
	.st0{clip-path:url(#SVGID_2_);fill:#B7C0DC;}
	.st1{clip-path:url(#SVGID_2_);fill:none;stroke:#5E3BA6;stroke-width:0.803;}
	.st2{clip-path:url(#SVGID_2_);}
	.st3{fill:#2E2057;}
	.st4{font-family:'FuturaLT-Bold';}
	.st5{font-size:13.6575px;}
	.st6{clip-path:url(#SVGID_2_);fill:none;stroke:#5E3BA6;stroke-width:0.603;stroke-linecap:square;stroke-miterlimit:10;}
</style>
<g>
	<defs>
		<rect id="SVGID_1_" y="0" width="66.6" height="60.2"/>
	</defs>
	<clipPath id="SVGID_2_">
		<use xlink:href="#SVGID_1_"  style="overflow:visible;"/>
	</clipPath>
	<path class="st0" d="M37.3,59.8c16,0,28.9-12.9,28.9-28.9S53.3,2,37.3,2S8.4,15,8.4,30.9S21.4,59.8,37.3,59.8"/>
	<path class="st1" d="M37.3,59.8c16,0,28.9-12.9,28.9-28.9S53.3,2,37.3,2S8.4,15,8.4,30.9S21.4,59.8,37.3,59.8z"/>
	<g class="st2">
		<text transform="matrix(1 0 0 1 0 10.926)" class="st3 st4 st5">4.</text>
	</g>
	<path class="st6" d="M33.8,33.3h7.1H33.8z M28.3,32l1.3,1.3l2.1-2.1l-2.1,2.1L28.3,32z M33.8,28.4h7.1H33.8z M28.3,27.2l1.3,1.3
		l2.1-2.1l-2.1,2.1L28.3,27.2z M47.1,29.1h-2.8v6.3h2.8V29.1z M44.3,26.5l1.4-0.9l1.4,0.9v2.6h-2.8V26.5z M23.8,19.4h1H23.8z
		 M50.9,19.4h-1H50.9z M47.7,19.4H35.9H47.7z M32.4,19.4h1.4H32.4z M29.6,19.4H31H29.6z M26.9,19.4h1.4H26.9z M49.8,22.2h-25H49.8z
		 M49.8,38.2h-25V16.6h25V38.2z M30.8,46.5h13.1H30.8z M40.1,46.5v-4.2V46.5z M34.6,46.5v-4.2V46.5z M22.1,38.2h30.5H22.1z
		 M50.9,19.4c1,0,1.7,0.8,1.7,1.7v19.5c0,0.9-0.8,1.7-1.7,1.7H37.4h13.5c0.9,0,1.7-0.8,1.7-1.7V21.1C52.6,20.2,51.8,19.4,50.9,19.4z
		 M23.8,19.4c-1,0-1.7,0.8-1.7,1.7v19.5c0,0.9,0.8,1.7,1.7,1.7h11.5H23.8c-0.9,0-1.7-0.8-1.7-1.7V21.1
		C22.1,20.2,22.8,19.4,23.8,19.4z"/>
</g>
</svg>
