<?xml version="1.0" encoding="utf-8"?>
<!-- Generator: Adobe Illustrator 24.3.0, SVG Export Plug-In . SVG Version: 6.00 Build 0)  -->
<svg version="1.1" id="Layer_1" xmlns="http://www.w3.org/2000/svg" xmlns:xlink="http://www.w3.org/1999/xlink" x="0px" y="0px"
	 viewBox="0 0 66.4 61.2" style="enable-background:new 0 0 66.4 61.2;" xml:space="preserve">
<style type="text/css">
	.st0{clip-path:url(#SVGID_2_);}
	.st1{fill:#2E2057;}
	.st2{font-family:'FuturaLT-Bold';}
	.st3{font-size:13.6575px;}
	.st4{clip-path:url(#SVGID_2_);fill:#B7C0DC;}
	.st5{clip-path:url(#SVGID_2_);fill:none;stroke:#5E3BA6;stroke-width:0.803;}
	.st6{clip-path:url(#SVGID_2_);fill:none;stroke:#5E3BA6;stroke-width:0.603;stroke-linecap:square;stroke-miterlimit:10;}
</style>
<g>
	<defs>
		<rect id="SVGID_1_" y="0" width="66.4" height="61.2"/>
	</defs>
	<clipPath id="SVGID_2_">
		<use xlink:href="#SVGID_1_"  style="overflow:visible;"/>
	</clipPath>
	<g class="st0">
		<text transform="matrix(1 0 0 1 0 10.926)" class="st1 st2 st3">1.</text>
	</g>
	<path class="st4" d="M37.2,60.8c16,0,28.9-12.9,28.9-28.9S53.1,3,37.2,3S8.3,16,8.3,31.9S21.2,60.8,37.2,60.8"/>
	<path class="st5" d="M37.2,60.8c16,0,28.9-12.9,28.9-28.9S53.1,3,37.2,3S8.3,16,8.3,31.9S21.2,60.8,37.2,60.8z"/>
	<path class="st6" d="M40.1,45.4c0-1.4,1.1-2.5,2.5-2.5c1.4,0,2.5,1.1,2.5,2.5c0-1.4-1.1-2.5-2.5-2.5C41.2,43,40.1,44.1,40.1,45.4z
		 M50.5,45.4v-1.1l-1.8-0.3c-0.2-0.7-0.5-1.4-0.9-2l1.1-1.5l-1.5-1.5l-1.5,1.1c-0.6-0.4-1.3-0.7-2-0.8l-0.3-1.8h-2.1l-0.3,1.8
		c-0.7,0.2-1.4,0.5-2,0.8l-1.5-1.1l-1.5,1.5l1.1,1.5c-0.4,0.6-0.7,1.3-0.8,2l-1.8,0.3v1.1v-1.1l1.8-0.3c0.2-0.7,0.5-1.4,0.8-2
		l-1.1-1.5l1.5-1.5l1.5,1.1c0.6-0.4,1.3-0.7,2-0.8l0.3-1.8h2.1l0.3,1.8c0.7,0.2,1.4,0.5,2,0.8l1.5-1.1l1.5,1.5l-1.1,1.5
		c0.4,0.6,0.7,1.3,0.9,2l1.8,0.3V45.4z M32,45.4l0-15l0,5.6h2c0.3,0,0.6-0.3,0.6-0.6v-7.3c0-1.1-0.9-1.9-1.9-1.9h-7
		c-1.1,0-1.9,0.9-1.9,1.9v7.3c0,0.3,0.3,0.6,0.6,0.6h2l0-5.6l0,15l0-15l0,5.6h-2c-0.3,0-0.6-0.3-0.6-0.6v-7.3c0-1.1,0.9-1.9,1.9-1.9
		h7c1.1,0,1.9,0.9,1.9,1.9v7.3c0,0.3-0.3,0.6-0.6,0.6h-2l0-5.6L32,45.4z M31.4,21.7c0,1.2-0.9,2.1-2.1,2.1s-2.1-0.9-2.1-2.1
		c0-1.2,0.9-2.1,2.1-2.1S31.4,20.6,31.4,21.7z M29.2,35.7l0,9.8L29.2,35.7z M37.7,30.4c1.5,0,2.7-1.2,2.7-2.7S39.2,25,37.7,25
		c-0.6,0-1.1,0.2-1.5,0.5c0.4-0.3,1-0.5,1.5-0.5c1.5,0,2.7,1.2,2.7,2.7S39.2,30.4,37.7,30.4z M34.1,22c0.7-0.4,1.4-0.8,2.2-0.9
		l0.3-2h2.3l0.3,2c0.8,0.2,1.5,0.5,2.2,0.9l1.6-1.2l1.6,1.6l-1.2,1.6c0.4,0.7,0.8,1.4,0.9,2.2l2,0.3v2.3l-2,0.3
		c-0.2,0.8-0.5,1.5-0.9,2.2l1.2,1.6L43,34.6l-1.6-1.2c-0.7,0.4-1.4,0.7-2.2,0.9l-0.3,2h-1.7h1.7l0.3-2c0.8-0.2,1.5-0.5,2.2-0.9
		l1.6,1.2l1.6-1.6l-1.2-1.6c0.4-0.7,0.8-1.4,0.9-2.2l2-0.3v-2.3l-2-0.3c-0.2-0.8-0.5-1.5-0.9-2.2l1.2-1.6L43,20.8L41.4,22
		c-0.7-0.4-1.4-0.7-2.2-0.9l-0.3-2h-2.3l-0.3,2C35.5,21.3,34.7,21.6,34.1,22z"/>
</g>
</svg>
