<?xml version="1.0" encoding="utf-8"?>
<!-- Generator: Adobe Illustrator 24.3.0, SVG Export Plug-In . SVG Version: 6.00 Build 0)  -->
<svg version="1.1" id="Layer_1" xmlns="http://www.w3.org/2000/svg" xmlns:xlink="http://www.w3.org/1999/xlink" x="0px" y="0px"
	 viewBox="0 0 68.7 59.2" style="enable-background:new 0 0 68.7 59.2;" xml:space="preserve">
<style type="text/css">
	.st0{clip-path:url(#SVGID_2_);}
	.st1{fill:#2E2057;}
	.st2{font-family:'FuturaLT-Bold';}
	.st3{font-size:13.6575px;}
	.st4{clip-path:url(#SVGID_2_);fill:#B7C0DC;}
	.st5{clip-path:url(#SVGID_2_);fill:none;stroke:#5E3BA6;stroke-width:0.803;}
	.st6{fill:none;stroke:#5E3BA6;stroke-width:0.603;stroke-miterlimit:10;}
	.st7{fill:none;stroke:#5E3BA6;stroke-width:0.603;stroke-linecap:square;stroke-linejoin:round;stroke-miterlimit:10;}
	.st8{clip-path:url(#SVGID_4_);fill:none;stroke:#5E3BA6;stroke-width:0.603;stroke-linecap:square;stroke-miterlimit:10;}
	.st9{clip-path:url(#SVGID_4_);fill:none;stroke:#5E3BA6;stroke-width:0.603;stroke-miterlimit:10;}
</style>
<g>
	<defs>
		<rect id="SVGID_1_" y="0" width="68.7" height="59.2"/>
	</defs>
	<clipPath id="SVGID_2_">
		<use xlink:href="#SVGID_1_"  style="overflow:visible;"/>
	</clipPath>
	<g class="st0">
		<text transform="matrix(1 0 0 1 0 10.926)" class="st1 st2 st3">3.</text>
	</g>
	<path class="st4" d="M39.4,58.8c16,0,28.9-12.9,28.9-28.9S55.4,1,39.4,1S10.5,14,10.5,29.9S23.5,58.8,39.4,58.8"/>
	<path class="st5" d="M39.4,58.8c16,0,28.9-12.9,28.9-28.9S55.4,1,39.4,1S10.5,14,10.5,29.9S23.5,58.8,39.4,58.8z"/>
</g>
<path class="st6" d="M33.1,30.1h-2.5H33.1z M46.7,16.4v3.7h3.7h-3.7V16.4z M30.6,33.5v8.9h19.8V20.1l-3.7-3.7H30.6v10.3V16.4h16.1
	l3.7,3.7v22.2H30.6V33.5z"/>
<rect x="22" y="28.5" class="st7" width="8.8" height="3.1"/>
<g>
	<defs>
		<rect id="SVGID_3_" y="0" width="68.7" height="59.2"/>
	</defs>
	<clipPath id="SVGID_4_">
		<use xlink:href="#SVGID_3_"  style="overflow:visible;"/>
	</clipPath>
	<path class="st8" d="M45.5,35.4v-1.2c0-0.8-0.5-1.4-1.2-1.6l-0.3-0.1c-1.1-0.3-2.2-0.5-3.4-0.5c0,0,0,0-0.1,0
		c-1.2,0-2.4,0.2-3.5,0.5l-0.3,0.1c-0.7,0.2-1.2,0.9-1.2,1.6l0,1.2l0-1.2c0-0.8,0.5-1.4,1.2-1.6l0.3-0.1c1.1-0.3,2.3-0.5,3.5-0.5
		c0,0,0,0,0.1,0c1.1,0,2.3,0.2,3.4,0.5l0.3,0.1c0.7,0.2,1.2,0.9,1.2,1.6V35.4z M45.8,24.8c2.9,2.9,2.9,7.6,0,10.5
		c-2.9,2.9-7.6,2.9-10.5,0c-2.9-2.9-2.9-7.6,0-10.5C38.1,21.9,42.9,21.9,45.8,24.8z"/>
	<path class="st9" d="M43,29c0,1.4-1.1,2.5-2.5,2.5c-1.4,0-2.5-1.1-2.5-2.5c0-1.4,1.1-2.5,2.5-2.5C41.9,26.5,43,27.7,43,29z"/>
</g>
</svg>
