<?xml version="1.0" encoding="utf-8"?>
<!-- Generator: Adobe Illustrator 24.3.0, SVG Export Plug-In . SVG Version: 6.00 Build 0)  -->
<svg version="1.1" id="Layer_1" xmlns="http://www.w3.org/2000/svg" xmlns:xlink="http://www.w3.org/1999/xlink" x="0px" y="0px"
	 viewBox="0 0 67.5 59.2" style="enable-background:new 0 0 67.5 59.2;" xml:space="preserve">
<style type="text/css">
	.st0{clip-path:url(#SVGID_2_);}
	.st1{fill:#2E2057;}
	.st2{font-family:'FuturaLT-Bold';}
	.st3{font-size:13.6575px;}
	.st4{clip-path:url(#SVGID_2_);fill:#B7C0DC;}
	.st5{clip-path:url(#SVGID_2_);fill:none;stroke:#5E3BA6;stroke-width:0.803;}
	.st6{clip-path:url(#SVGID_2_);fill:none;stroke:#5E3BA6;stroke-width:0.603;stroke-linecap:round;stroke-miterlimit:10;}
</style>
<g>
	<defs>
		<rect id="SVGID_1_" y="0" width="67.5" height="59.2"/>
	</defs>
	<clipPath id="SVGID_2_">
		<use xlink:href="#SVGID_1_"  style="overflow:visible;"/>
	</clipPath>
	<g class="st0">
		<text transform="matrix(1 0 0 1 0 10.926)" class="st1 st2 st3">2.</text>
	</g>
	<path class="st4" d="M38.2,58.8c16,0,28.9-12.9,28.9-28.9S54.2,1,38.2,1S9.3,14,9.3,29.9S22.3,58.8,38.2,58.8"/>
	<path class="st5" d="M38.2,58.8c16,0,28.9-12.9,28.9-28.9S54.2,1,38.2,1S9.3,14,9.3,29.9S22.3,58.8,38.2,58.8z"/>
	<path class="st6" d="M49.5,36.7h1.6c0.3,0,0.5-0.2,0.5-0.5v-5.4c0-0.8-0.7-1.5-1.5-1.5h-5h5c0.8,0,1.5,0.7,1.5,1.5v5.4
		c0,0.3-0.2,0.5-0.5,0.5H49.5z M45.4,25.3c0,1,0.8,1.8,1.9,1.8c1,0,1.9-0.8,1.9-1.8c0-1-0.8-1.8-1.9-1.8
		C46.2,23.5,45.4,24.3,45.4,25.3z M45.1,44.2l0-11.9L45.1,44.2z M47.3,44.2l0-7.8L47.3,44.2z M49.5,44.2l0-11.9L49.5,44.2z
		 M45.5,19.9c0,1-0.8,1.8-1.9,1.8c-1,0-1.8-0.8-1.8-1.8s0.8-1.8,1.8-1.8C44.7,18.1,45.5,18.9,45.5,19.9z M34.8,19.9
		c0,1.1-0.9,1.9-1.9,1.9c-1.1,0-1.9-0.9-1.9-1.9s0.9-1.9,1.9-1.9C34,18,34.8,18.9,34.8,19.9z M26.9,36.7h-1.6
		c-0.3,0-0.5-0.2-0.5-0.5v-5.4c0-0.8,0.7-1.5,1.5-1.5h5h-5c-0.8,0-1.5,0.7-1.5,1.5v5.4c0,0.3,0.2,0.5,0.5,0.5H26.9z M31,25.3
		c0,1-0.8,1.8-1.9,1.8c-1,0-1.8-0.8-1.8-1.8c0-1,0.8-1.8,1.8-1.8C30.2,23.5,31,24.3,31,25.3z M31.3,44.2l0-11.9L31.3,44.2z
		 M26.9,44.2l0-11.9L26.9,44.2z M29.1,44.2l0-7.8L29.1,44.2z M40.7,35.9h1.8c0.3,0,0.5-0.2,0.5-0.5v-6c0-0.9-0.8-1.7-1.7-1.7h-6.2
		c-0.9,0-1.7,0.8-1.7,1.7v6c0,0.3,0.2,0.5,0.5,0.5h1.8H34c-0.3,0-0.5-0.2-0.5-0.5v-6c0-0.9,0.8-1.7,1.7-1.7h6.2
		c0.9,0,1.7,0.8,1.7,1.7v6c0,0.3-0.2,0.5-0.5,0.5H40.7z M40.1,23.3c0,1-0.8,1.8-1.9,1.8c-1,0-1.9-0.8-1.9-1.8c0-1,0.8-1.8,1.9-1.8
		C39.3,21.5,40.1,22.3,40.1,23.3z M40.7,44.2l0-13.2L40.7,44.2z M35.7,44.2l0-13.2L35.7,44.2z M38.2,44.2l0-8.6L38.2,44.2z"/>
</g>
</svg>
